<?xml version="1.0" standalone="no"?>
<!DOCTYPE svg PUBLIC "-//W3C//DTD SVG 20010904//EN"
 "http://www.w3.org/TR/2001/REC-SVG-20010904/DTD/svg10.dtd">
<svg version="1.0" xmlns="http://www.w3.org/2000/svg"
 width="737.000000pt" height="639.000000pt" viewBox="0 0 737.000000 639.000000"
 preserveAspectRatio="xMidYMid meet">

<g transform="translate(0.000000,639.000000) scale(0.100000,-0.100000)"
fill="#000000" stroke="none">
<path d="M0 3194 l0 -3195 3473 2 c2472 2 3474 5 3479 13 5 8 11 7 20 -2 9 -9
65 -12 205 -12 l193 0 0 35 0 35 -82 1 c-219 4 -250 6 -265 22 -13 13 -17 47
-20 169 -2 84 -8 168 -13 187 -5 19 -8 36 -6 38 2 2 21 0 42 -5 22 -5 55 -7
74 -6 41 3 183 6 190 4 3 -1 22 -2 43 -3 l37 -2 0 42 c0 41 -1 42 -37 49 -21
4 -51 7 -68 6 -86 -4 -659 -2 -663 3 -3 3 -11 0 -17 -5 -8 -6 -22 -7 -36 -2
-13 4 -110 6 -216 3 -105 -4 -224 -4 -264 -1 -73 5 -74 5 -79 35 -3 17 -3 46
0 65 3 19 2 69 -1 110 -4 59 -14 77 -12 23 1 -16 -19 -17 -35 -1 -9 9 -12 9
-12 1 0 -7 9 -15 20 -18 11 -3 20 -13 20 -20 0 -9 -6 -12 -15 -9 -20 8 -19 -1
2 -21 14 -14 14 -18 2 -26 -8 -5 -9 -9 -3 -9 14 0 15 -78 2 -87 -6 -3 -5 -9 3
-14 12 -8 11 -11 -1 -19 -13 -8 -13 -10 -1 -10 11 0 9 -4 -5 -15 -17 -13 -17
-14 -2 -15 9 0 21 -6 25 -14 15 -28 135 -35 548 -33 392 2 411 1 428 -17 19
-21 23 -56 7 -56 -6 0 -8 -12 -5 -27 7 -39 -4 -85 -20 -80 -9 4 -13 -16 -13
-81 -1 -72 1 -83 10 -62 10 23 11 23 16 5 2 -10 11 -29 19 -42 21 -31 11 -52
-21 -46 -14 3 -26 8 -26 12 0 3 -102 4 -227 1 -332 -7 -992 -1 -1033 10 -19 5
-37 6 -40 2 -4 -6 -674 -10 -747 -4 -18 2 -21 8 -19 34 3 43 42 57 90 34 19
-9 40 -16 47 -16 7 0 22 -9 34 -20 18 -17 27 -19 49 -10 18 6 41 7 69 0 66
-15 94 -12 154 16 45 22 63 25 101 20 149 -22 159 -21 238 19 77 39 122 81
105 98 -5 5 -7 28 -4 52 6 63 -12 67 -61 13 -64 -70 -87 -81 -187 -83 l-87 -3
-6 30 c-8 39 38 116 57 96 7 -7 16 -21 20 -30 3 -10 10 -18 15 -18 11 0 92 60
92 68 0 4 -9 22 -20 40 -14 22 -26 32 -35 28 -8 -3 -22 -9 -30 -12 -10 -4 -15
0 -15 14 0 12 -4 23 -9 27 -14 8 -31 -28 -31 -64 0 -17 -4 -31 -10 -31 -5 0
-10 6 -10 14 0 14 -41 46 -59 46 -5 0 -13 -10 -17 -22 -6 -20 -8 -20 -19 -5
-16 22 -31 22 -44 0 -9 -16 -10 -15 -11 7 -1 24 -1 24 -15 6 -15 -19 -15 -19
-15 5 0 37 -13 50 -59 60 -48 11 -61 6 -61 -20 0 -26 -21 -39 -50 -31 l-25 6
-5 186 c-3 103 -8 189 -11 193 -4 3 -9 -21 -13 -53 -7 -59 -30 -107 -47 -97
-5 4 -9 -1 -9 -9 0 -18 -35 -22 -45 -6 -5 8 -11 8 -20 0 -10 -8 -15 -6 -20 9
-3 12 -13 21 -20 21 -9 0 -12 -6 -9 -15 4 -8 10 -15 15 -15 5 0 9 -4 9 -10 0
-16 -19 -11 -43 11 -19 17 -23 18 -25 5 -5 -23 -25 -20 -58 9 -18 16 -32 21
-38 15 -15 -15 -35 -12 -59 10 -17 17 -29 19 -64 14 -33 -5 -46 -2 -59 11 -16
16 -19 16 -29 1 -7 -9 -14 -13 -17 -10 -7 7 -58 -17 -58 -28 0 -16 -18 -8 -23
11 -5 20 -21 22 -44 8 -18 -11 -16 -27 2 -27 9 0 15 -10 15 -26 0 -23 -3 -25
-25 -20 -14 4 -25 2 -25 -4 0 -18 -28 -11 -35 9 -8 27 -34 34 -61 16 -30 -19
-30 -33 -1 -45 12 -5 17 -9 10 -9 -6 -1 -19 -4 -28 -7 -12 -5 -16 -2 -13 12 2
13 -3 19 -14 18 -24 -2 -23 19 2 41 14 13 18 25 14 44 -8 31 -25 51 -31 35 -2
-6 -11 -20 -19 -30 -14 -18 -15 -17 -10 14 5 30 4 32 -24 32 -20 0 -30 5 -30
15 0 19 -29 19 -36 0 -4 -8 -12 -15 -20 -15 -10 0 -14 -15 -15 -52 0 -29 -3
-47 -6 -40 -2 6 -11 12 -19 12 -8 0 -15 7 -15 15 -3 31 -4 35 -14 35 -5 0 -10
-4 -10 -10 0 -13 -24 -35 -31 -28 -3 4 -7 14 -8 25 -3 21 -50 26 -52 6 -4 -35
-6 -35 -21 0 -13 32 -19 37 -48 37 -22 0 -38 7 -49 23 l-16 22 -16 -22 c-13
-18 -19 -20 -35 -10 -14 9 -21 9 -30 0 -15 -15 -42 8 -34 29 4 9 -4 13 -22 14
-56 2 -83 9 -87 21 -3 7 -16 13 -28 13 -13 0 -32 7 -42 15 -11 8 -32 15 -48
15 -15 0 -37 9 -47 19 -11 11 -21 17 -24 15 -2 -3 -31 3 -63 13 -32 9 -90 18
-129 20 -171 7 -197 11 -206 24 -7 11 -10 9 -15 -8 -6 -22 -36 -35 -60 -26
-31 11 -6 53 31 53 18 0 21 5 17 28 -3 22 -9 27 -34 29 -41 3 -62 21 -46 40
13 16 58 9 70 -10 6 -9 8 -8 8 1 0 9 7 11 20 7 15 -5 18 -3 14 8 -6 17 17 24
106 34 49 5 61 3 66 -10 4 -12 17 -15 52 -12 26 1 58 6 72 11 23 7 24 6 11 -9
-12 -15 -11 -17 5 -19 11 0 27 0 37 0 10 1 16 -2 13 -6 -2 -4 11 -6 30 -4 19
2 34 7 34 11 0 17 41 31 60 21 19 -10 77 -3 65 8 -3 3 -30 7 -60 8 -45 3 -60
-1 -76 -17 -20 -20 -44 -17 -35 6 6 18 -78 49 -113 42 -34 -7 -65 13 -86 54
-20 37 -35 37 -35 0 0 -16 -6 -34 -13 -40 -15 -12 -83 -15 -142 -6 -22 3 -59
8 -82 10 -23 2 -51 9 -62 14 -29 16 -33 13 -12 -8 17 -17 18 -24 9 -48 -8 -22
-16 -28 -39 -27 -16 1 -47 2 -69 3 -34 1 -40 4 -40 22 0 18 4 20 26 15 19 -5
25 -3 21 6 -2 7 -11 11 -18 9 -8 -1 -39 -7 -69 -11 -52 -8 -56 -7 -83 21 -15
16 -33 29 -40 29 -7 1 -3 6 8 13 11 7 21 21 21 32 1 11 3 31 4 45 2 14 2 44 2
68 -2 38 -5 44 -32 53 -16 6 -27 15 -24 20 3 5 -2 9 -10 9 -18 0 -22 16 -5 22
6 2 13 15 14 28 1 14 3 28 4 32 0 4 11 8 24 10 20 3 22 8 19 53 -1 28 -5 56
-7 63 -5 14 -101 17 -109 3 -3 -5 -18 -8 -33 -8 -14 0 -32 -8 -38 -17 -19 -25
-45 -20 -45 9 0 20 -5 25 -24 25 -37 0 -42 19 -7 26 34 7 42 24 12 24 -11 0
-27 7 -35 16 -9 8 -16 11 -16 5 0 -6 -4 -11 -10 -11 -5 0 -10 9 -10 19 0 26
37 51 73 51 29 0 30 0 25 50 -3 28 -7 52 -9 54 -2 2 -26 6 -54 7 -34 2 -50 -1
-51 -9 -1 -7 -2 -23 -3 -37 -2 -37 -20 -30 -20 8 1 17 -5 54 -11 80 -7 27 -9
60 -6 74 6 21 11 24 34 18 31 -8 35 -9 80 -7 l33 2 -7 48 c-3 26 -9 50 -13 53
-3 4 -25 10 -48 14 l-42 7 -7 -52 c-4 -30 -11 -49 -18 -47 -22 7 -31 96 -35
329 -1 20 -8 43 -16 51 -18 19 -42 87 -37 109 2 9 17 20 34 23 25 6 29 11 25
31 -2 13 0 24 6 24 16 0 -25 41 -51 51 -15 6 -31 5 -43 -1 -17 -10 -19 -18
-13 -63 4 -29 10 -56 14 -62 9 -12 10 -95 1 -96 -3 0 -18 -3 -34 -5 -30 -5
-38 7 -51 78 -7 37 -6 38 25 38 33 0 34 8 9 74 -9 24 -43 50 -52 40 -9 -8 -26
20 -37 60 -12 46 0 70 31 60 17 -5 19 -1 16 43 l-3 48 -42 3 -42 3 -18 81
c-10 44 -22 79 -28 79 -5 -1 -9 -13 -8 -27 1 -19 -1 -23 -10 -15 -9 7 -16 4
-25 -10 -11 -18 -10 -23 15 -42 15 -12 31 -21 34 -20 10 3 27 -44 40 -112 6
-33 15 -77 20 -97 44 -181 44 -182 30 -174 -7 5 -16 19 -21 32 -5 13 -20 28
-33 33 -20 8 -107 125 -107 145 0 4 -20 27 -45 53 -25 25 -45 48 -45 52 0 3
-16 19 -35 34 -19 15 -35 34 -35 41 0 8 -11 21 -25 30 -31 20 -107 12 -98 -10
3 -8 10 -14 17 -14 6 0 23 -12 37 -27 14 -16 52 -44 83 -63 35 -20 69 -51 85
-74 14 -22 34 -48 43 -58 10 -10 18 -24 18 -32 0 -8 9 -21 19 -28 16 -11 71
-101 71 -115 0 -2 -16 -1 -35 3 l-35 6 0 -46 c0 -40 3 -48 25 -56 14 -5 31 -7
39 -4 8 3 17 1 21 -5 10 -16 23 -13 27 6 2 13 9 7 26 -21 23 -39 43 -45 23 -7
-6 11 -7 22 -2 25 13 9 35 -45 36 -94 1 -25 14 -83 29 -130 28 -90 30 -111 21
-201 -5 -44 -2 -60 10 -72 8 -9 15 -26 15 -38 l0 -23 -20 22 c-12 12 -25 22
-31 22 -21 0 -88 63 -94 89 -4 14 -24 43 -46 64 -31 30 -40 35 -45 22 -6 -16
13 -75 25 -75 3 0 5 -20 3 -45 -4 -44 -3 -45 26 -45 24 0 36 -10 70 -59 42
-60 82 -141 82 -167 0 -8 9 -23 20 -34 12 -12 18 -26 13 -33 -5 -8 -9 -7 -11
6 -6 30 -20 19 -25 -20 -4 -29 0 -42 15 -55 11 -10 18 -25 16 -34 -4 -22 -28
-31 -28 -11 0 15 -27 32 -44 28 -12 -3 -26 20 -26 44 0 22 -40 45 -77 45 -17
0 -24 -7 -29 -28 -3 -15 -8 -33 -10 -41 -2 -7 1 -20 8 -28 10 -12 9 -17 -4
-27 -15 -11 -22 -38 -19 -81 1 -19 17 -31 98 -76 66 -38 135 -98 168 -147 42
-61 44 -75 11 -62 -13 5 -27 6 -30 3 -3 -4 -6 1 -6 10 0 18 -22 26 -65 24 -31
-2 -32 -4 -21 -49 5 -23 -1 -35 -37 -73 -45 -46 -67 -56 -67 -30 0 17 -16 20
-25 5 -3 -5 -14 -10 -24 -10 -10 0 -25 -7 -32 -16 -11 -14 -11 -18 3 -28 23
-17 1 -55 -51 -89 -48 -32 -81 -35 -81 -8 0 10 -7 21 -15 25 -23 9 -18 34 12
53 34 22 63 50 63 61 0 8 -43 32 -55 32 -3 0 -5 -9 -5 -20 0 -13 5 -18 14 -14
13 5 13 2 3 -20 l-12 -25 -13 39 c-8 22 -18 40 -24 40 -5 0 4 17 21 37 33 40
34 58 1 28 -28 -26 -25 -10 7 32 25 33 30 35 70 29 25 -3 43 -2 43 4 0 5 -7 7
-15 4 -8 -4 -15 -1 -15 4 0 6 9 14 20 17 11 3 23 18 26 32 7 27 6 28 -58 64
l-28 16 44 17 c48 19 78 12 110 -23 14 -15 31 -21 60 -20 40 0 41 0 19 16 -13
8 -23 22 -23 29 0 9 -11 14 -27 14 -16 0 -36 7 -47 15 -12 9 -25 11 -40 5 -33
-12 -114 -9 -120 5 -2 7 -22 15 -44 19 -35 5 -48 1 -91 -26 -51 -31 -51 -31
-35 -57 12 -17 14 -26 6 -29 -14 -4 -16 -62 -2 -62 5 0 23 13 40 30 36 36 92
43 83 11 -3 -13 2 -20 21 -25 39 -10 32 -34 -21 -79 -20 -18 -23 -18 -45 -3
-31 22 -52 20 -115 -9 -51 -25 -69 -45 -38 -45 25 0 17 -28 -21 -70 -34 -37
-74 -53 -74 -30 0 6 -7 10 -15 10 -8 0 -15 4 -15 8 0 11 120 122 132 122 12 0
9 12 -6 33 -7 9 -20 17 -29 17 -19 0 -37 30 -37 60 0 19 -4 21 -26 16 -21 -6
-25 -4 -22 11 2 12 14 19 33 21 36 4 54 18 66 49 5 13 15 23 24 23 12 0 13 5
4 26 -7 21 -6 31 6 45 22 23 16 73 -8 77 -29 6 -85 -7 -100 -22 -13 -14 -88
-39 -94 -32 -9 8 -7 181 2 183 18 4 40 143 23 143 -50 0 -57 -2 -63 -20 -10
-33 -55 -80 -76 -80 -15 0 -18 6 -14 28 2 15 7 44 10 65 4 23 13 41 23 44 9 4
23 15 30 25 11 15 17 17 28 7 8 -7 12 -20 9 -30 -7 -20 2 -23 29 -13 19 7 21
31 4 36 -8 3 -4 10 10 17 13 7 36 26 51 43 23 26 31 29 60 23 18 -4 35 -13 38
-21 3 -8 10 -11 15 -8 6 4 5 10 -3 15 -11 7 -11 9 -1 9 16 0 61 50 62 67 0 28
-100 47 -115 22 -8 -13 -61 -3 -93 18 -21 13 -23 20 -17 51 4 20 12 46 18 57
11 20 13 26 15 56 2 20 30 29 57 19 19 -7 18 -9 -7 -20 -37 -17 -35 -30 2 -30
25 0 30 -4 30 -25 0 -35 22 -41 94 -26 102 22 108 22 120 12 22 -18 41 -90 28
-103 -7 -7 -12 -27 -12 -45 0 -26 6 -36 30 -48 37 -19 79 -19 86 -1 4 12 12
13 31 5 14 -5 27 -8 29 -6 6 6 -33 72 -41 69 -7 -3 -22 18 -47 68 -6 14 -23
35 -36 47 -27 25 -22 43 13 43 41 0 19 25 -38 42 -39 12 -54 13 -59 5 -6 -9
-18 -6 -45 9 -76 43 -168 77 -208 76 -58 -2 -82 21 -87 85 -4 38 0 60 12 80
16 27 20 28 101 28 71 0 84 3 87 17 2 10 -4 25 -13 34 -9 10 -14 25 -12 35 3
11 0 20 -6 20 -42 5 -74 -2 -88 -20 -11 -14 -27 -19 -55 -18 -35 2 -39 5 -42
30 -2 16 4 46 12 68 22 53 20 64 -11 84 -24 16 -26 16 -20 1 4 -9 -2 -33 -13
-54 -11 -20 -21 -35 -21 -32 -1 3 -2 17 -3 33 -1 15 -5 27 -9 27 -4 0 -11 0
-15 0 -4 0 -8 -9 -8 -20 0 -11 4 -20 8 -20 4 0 8 -4 8 -9 0 -4 -11 -6 -25 -4
-24 5 -24 5 -21 -61 4 -67 0 -81 -22 -67 -8 5 -11 20 -7 41 3 19 1 36 -5 40
-5 3 -12 34 -14 68 -4 59 -3 62 21 68 13 4 35 1 48 -6 13 -7 29 -10 37 -7 9 4
9 6 -3 6 -9 1 -23 9 -30 18 -12 15 -12 16 5 10 12 -5 23 -1 32 10 11 15 16 16
33 6 17 -11 23 -9 41 16 11 16 22 42 24 58 2 15 1 22 -1 16 -2 -7 -9 -13 -14
-13 -6 0 -8 3 -5 8 2 4 -61 6 -141 4 -156 -4 -174 2 -148 42 19 30 52 129 48
142 -7 21 25 23 48 3 l22 -19 -26 0 -27 0 20 -20 c11 -11 22 -20 24 -20 9 0
12 50 3 59 -15 15 2 34 19 20 11 -9 14 -8 14 4 0 22 -18 31 -34 18 -10 -8 -23
-7 -52 6 -33 14 -36 18 -17 21 14 2 20 8 16 18 -3 8 -2 14 1 14 4 0 11 -12 16
-26 6 -14 14 -22 20 -19 16 10 12 22 -22 55 -24 25 -37 31 -58 26 -22 -4 -29
0 -38 19 -9 20 -8 24 6 24 9 1 36 4 60 7 35 5 41 9 31 20 -9 11 -8 14 7 14 16
0 17 2 4 10 -11 7 -12 12 -3 21 15 15 57 -7 49 -27 -4 -10 2 -14 19 -14 14 0
25 5 25 10 0 6 5 10 11 10 5 0 7 -4 4 -10 -3 -6 4 -10 17 -10 17 0 19 3 9 9
-9 6 -5 9 13 9 14 0 26 -4 26 -8 0 -11 -38 -20 -87 -20 -24 0 -43 -4 -43 -10
0 -5 42 -9 99 -9 90 0 101 2 106 19 4 11 14 20 24 20 9 0 21 3 27 8 5 4 -1 -3
-13 -15 -13 -12 -23 -25 -23 -28 0 -10 22 -5 36 10 20 20 44 19 44 -1 0 -14
21 -15 185 -10 154 5 193 10 237 27 29 11 124 31 211 44 88 12 164 28 169 33
6 6 7 18 3 29 -5 10 -7 23 -6 29 1 7 -6 15 -15 18 -15 6 -15 9 4 27 26 24 30
86 7 95 -21 8 -19 24 3 24 14 0 19 8 20 30 0 17 -3 30 -8 30 -5 0 -15 12 -22
28 -11 23 -19 27 -52 27 -24 0 -41 -6 -44 -14 -3 -9 2 -11 17 -6 12 4 21 2 21
-4 0 -6 -4 -11 -10 -11 -5 0 -10 -7 -10 -15 0 -8 -9 -15 -20 -15 -11 0 -20 -5
-20 -11 0 -5 3 -8 8 -6 4 3 6 -17 5 -43 -1 -35 3 -50 14 -54 9 -4 12 -13 8
-25 -3 -11 -1 -22 4 -25 6 -4 5 -15 -3 -30 -7 -14 -11 -39 -10 -56 l2 -32
-440 6 c-339 4 -444 8 -456 18 -12 10 -14 10 -8 1 5 -9 -2 -13 -23 -13 -17 0
-31 4 -31 10 0 5 7 7 15 4 19 -8 19 10 0 26 -11 9 -15 32 -15 81 0 39 -4 69
-10 69 -5 0 -10 10 -10 22 0 17 3 19 12 10 16 -16 28 -15 28 3 0 8 -4 15 -9
15 -5 0 -11 9 -14 20 -4 16 0 20 20 20 14 0 22 4 18 10 -4 6 -12 10 -18 9 -27
-3 -47 2 -47 11 0 6 3 9 8 8 4 -2 9 2 12 7 3 6 -13 10 -37 11 -24 0 -43 -1
-43 -4 0 -2 9 -17 21 -33 18 -25 18 -30 5 -35 -9 -3 -16 -15 -16 -25 0 -11 -6
-22 -14 -25 -17 -7 -28 -44 -17 -58 10 -12 -3 -118 -19 -153 -8 -20 -13 -21
-40 -12 -19 7 -35 8 -43 2 -19 -15 -83 -8 -103 12 -20 20 -21 80 -1 104 16 20
17 41 1 41 -7 0 -16 -12 -20 -27 -17 -78 -26 -103 -39 -116 -8 -8 -11 -17 -8
-21 4 -3 -1 -6 -11 -6 -9 0 -14 5 -11 10 3 6 -1 10 -9 10 -9 0 -16 -4 -16 -10
0 -5 -11 -10 -23 -10 -28 0 -51 41 -41 73 6 20 6 20 -11 3 -18 -17 -18 -19 0
-48 17 -30 17 -30 -3 -19 -12 6 -24 16 -27 21 -3 6 -13 10 -21 10 -8 0 -13 -4
-10 -8 3 -5 -8 -6 -24 -4 -21 3 -27 8 -23 19 4 9 -1 20 -11 25 -23 13 -10 31
14 18 24 -13 30 -13 30 1 0 5 -5 7 -10 4 -6 -3 -10 -2 -10 4 0 5 6 12 13 15 6
3 -1 4 -16 2 l-28 -3 23 24 c17 19 24 21 26 10 2 -9 21 -17 50 -21 32 -4 51
-13 60 -26 7 -11 18 -20 24 -20 9 0 9 3 0 12 -7 7 -12 20 -12 29 0 18 -40 49
-65 49 -8 0 -15 -4 -15 -10 0 -5 -8 -10 -17 -10 -14 0 -15 2 -4 9 7 5 10 14 7
20 -5 7 2 11 17 11 14 0 39 3 56 6 25 5 31 3 31 -11 0 -15 2 -15 16 -4 14 11
18 10 30 -6 14 -18 14 -18 14 3 0 15 -6 22 -20 22 -11 0 -20 7 -20 16 0 11 6
14 20 9 13 -4 22 -1 26 9 10 26 37 20 31 -6 -2 -13 -1 -34 3 -48 7 -21 8 -22
10 -5 1 11 1 32 0 47 -1 23 3 28 35 34 23 4 41 2 48 -5 15 -15 27 -14 27 4 0
10 10 15 28 15 38 0 54 17 39 42 -10 16 -9 22 6 33 14 10 15 15 5 22 -18 11
-119 11 -107 -1 14 -15 11 -22 -11 -23 -11 -1 -20 2 -20 7 0 4 -13 13 -30 19
-56 19 -30 27 83 27 80 -1 119 -5 130 -14 9 -8 25 -11 35 -8 10 4 54 6 98 7
43 0 95 0 114 1 19 1 117 2 218 2 114 1 182 5 182 11 0 6 3 6 8 0 5 -7 81 -9
230 -5 123 3 226 2 228 -2 7 -11 34 3 34 17 0 20 42 43 65 35 11 -4 28 -3 39
2 12 7 22 6 29 -1 6 -6 19 -11 29 -11 10 0 18 -3 18 -8 0 -17 64 -33 127 -32
37 1 126 1 198 0 86 -1 131 2 133 9 2 6 8 11 14 11 7 0 6 -5 -1 -14 -8 -10
-10 -30 -6 -60 5 -32 4 -46 -4 -46 -17 0 -2 -50 27 -87 13 -18 29 -30 36 -27
12 6 -14 -16 -38 -31 -19 -13 -29 -55 -17 -74 11 -18 73 -7 97 16 16 16 18 15
40 -12 13 -17 24 -35 24 -41 0 -15 -74 -16 -120 -3 -45 14 -115 -3 -133 -31
-15 -25 -24 -25 -30 -2 -3 9 -5 1 -6 -18 -5 -94 -80 -168 -174 -172 -29 -2
-43 -6 -40 -14 6 -15 -41 -44 -72 -44 -19 0 -25 -5 -25 -22 0 -40 13 -49 56
-40 33 6 40 12 42 35 2 17 10 27 20 28 9 1 34 2 54 3 29 2 39 -1 43 -15 6 -17
8 -18 31 -3 13 9 24 22 24 30 0 7 11 26 24 41 27 31 29 28 41 -39 7 -47 15
-51 53 -33 37 19 53 13 76 -26 15 -26 22 -30 45 -24 34 9 33 8 25 39 -8 33
-66 61 -94 46 -26 -14 -26 -14 -40 20 -9 22 -19 30 -37 30 -15 0 -22 4 -17 11
6 11 47 8 91 -6 19 -6 25 -2 36 24 7 17 16 28 20 24 4 -3 7 5 7 19 0 31 22 52
37 37 8 -8 17 -8 32 0 11 7 33 8 48 5 26 -7 27 -6 10 10 -9 9 -21 14 -27 11
-11 -7 -13 15 -4 39 9 23 23 20 48 -11 51 -64 60 -126 27 -198 -10 -22 -18
-44 -19 -49 0 -5 -5 -12 -10 -15 -6 -4 -6 -15 0 -30 l9 -24 19 21 c11 12 20
26 20 33 0 6 6 9 14 6 9 -4 16 3 20 18 3 13 15 27 26 30 11 3 20 10 20 15 0 4
15 11 34 14 37 7 111 83 111 114 0 17 18 18 120 10 11 -1 59 2 108 7 75 7 87
6 87 -7 0 -26 55 -43 90 -28 44 18 81 50 74 62 -5 8 1 9 17 4 13 -3 45 -12 72
-18 31 -7 47 -17 48 -27 0 -11 3 -9 9 6 13 32 45 46 91 38 21 -4 39 -11 39
-16 0 -5 5 -9 11 -9 6 0 29 -19 50 -42 33 -37 38 -50 39 -93 0 -27 7 -61 15
-75 13 -23 14 -17 15 70 1 136 3 158 17 153 9 -4 9 4 2 32 -7 25 -7 40 0 49 6
7 12 24 13 37 2 34 -21 109 -33 109 -13 0 -44 31 -52 53 -6 16 -53 42 -69 39
-5 -1 -8 2 -8 8 0 5 -20 15 -45 21 -44 11 -45 12 -45 51 0 39 1 39 30 33 26
-6 30 -4 30 14 0 12 6 21 15 21 8 0 15 4 15 9 0 4 12 6 26 3 19 -3 22 -7 12
-13 -9 -6 -7 -9 10 -9 12 0 22 4 22 10 0 14 53 21 200 24 244 6 249 7 215 17
-16 4 -143 10 -282 13 -139 2 -257 7 -262 10 -5 4 -1 36 10 78 10 40 14 77 10
81 -5 5 -2 23 7 40 9 18 16 47 16 65 0 17 4 32 9 32 13 0 0 -89 -14 -107 -21
-24 -2 -24 27 0 16 13 37 27 47 30 9 4 27 22 38 42 12 19 25 35 30 35 5 0 14
19 20 43 l10 43 82 -1 c57 -1 86 2 95 12 18 18 48 17 56 -3 3 -8 10 -12 16 -9
6 4 8 10 6 14 -3 4 4 8 15 8 10 1 19 -3 19 -9 0 -7 4 -7 13 1 8 6 17 8 20 4 4
-3 7 2 7 13 1 14 5 11 15 -11 l13 -30 2 30 c1 27 2 28 14 13 10 -13 15 -15 24
-6 19 19 14 25 -20 25 -18 0 -89 2 -158 3 -91 1 -137 -3 -167 -14 -26 -9 -43
-11 -43 -5 0 6 -5 7 -11 4 -12 -8 -64 3 -55 12 3 4 -1 17 -9 29 -17 26 -4 78
21 88 8 3 14 12 14 21 0 8 6 15 14 15 24 0 67 41 65 64 -2 37 1 46 16 46 10 0
15 -10 15 -30 0 -17 -5 -30 -12 -30 -9 0 -9 -3 1 -9 16 -10 50 3 63 23 16 23
8 93 -13 120 -19 24 -20 28 -6 50 9 13 25 26 37 29 17 4 24 -1 36 -28 8 -19
14 -47 15 -62 l1 -28 14 30 15 30 -5 -45 c-3 -25 -8 -54 -12 -63 -3 -10 -1
-17 5 -17 6 0 11 6 11 14 0 13 32 95 51 129 6 12 6 17 -3 17 -8 0 -9 3 -3 8
10 6 11 20 5 40 -1 4 -2 10 -2 13 1 4 -21 17 -49 30 -43 21 -47 25 -33 36 14
10 23 9 49 -7 l33 -20 6 22 c3 13 6 34 6 47 0 13 16 74 36 135 20 61 38 120
40 131 7 37 34 46 111 41 39 -3 129 -1 200 5 232 19 277 22 379 23 71 1 100 4
97 12 -4 11 -24 12 -545 16 -97 1 -190 3 -206 6 -38 5 -50 41 -26 77 27 41 34
93 18 137 -18 53 -18 59 4 27 l17 -27 3 64 c2 47 -1 66 -11 70 -28 10 -14 34
20 34 20 0 33 5 33 13 0 8 3 7 10 -3 7 -11 12 -12 21 -3 21 21 2 45 -33 42
-94 -6 -103 -3 -132 54 -15 28 -35 65 -44 81 -24 43 -97 116 -115 116 -8 0
-44 26 -79 58 -36 31 -77 66 -93 77 l-28 21 44 3 c51 3 127 3 289 1 435 -5
610 -3 1130 13 70 2 102 7 120 20 l24 17 -29 1 c-17 0 -479 2 -1029 5 -955 5
-1000 6 -1036 24 -35 18 -80 17 -80 -1 0 -18 -40 -8 -51 12 -7 13 -17 19 -29
16 -13 -3 -16 0 -13 14 5 17 2 18 -22 9 -15 -6 -31 -7 -37 -4 -6 4 -14 1 -18
-6 -7 -11 -15 -11 -42 -2 l-33 11 35 -5 c26 -4 31 -3 20 5 -25 18 -60 13 -60
-8 0 -39 -26 -46 -169 -46 -75 0 -176 2 -226 4 -49 2 -142 3 -205 2 -105 -2
-401 5 -590 14 -41 2 -100 4 -131 4 -51 1 -57 3 -68 28 -7 15 -9 29 -4 30 9 3
8 93 -2 130 -5 23 -8 23 -140 23 l-134 0 6 -35 c3 -19 2 -42 -2 -52 -5 -10 -7
-25 -6 -35 1 -9 -3 -19 -9 -23 -8 -5 -8 -11 1 -21 9 -11 9 -14 0 -14 -7 0 -9
-4 -6 -10 4 -6 -12 -10 -39 -10 -38 0 -46 3 -46 19 0 23 -29 36 -36 16 -3 -8
-3 -19 1 -25 4 -6 -21 -10 -75 -10 -52 0 -79 4 -75 10 3 6 1 10 -4 10 -6 0
-11 -4 -11 -9 0 -6 -9 -9 -20 -8 -11 1 -20 8 -20 18 0 9 -9 19 -19 22 -22 5
-30 56 -20 120 l6 37 -73 0 c-61 0 -72 -3 -68 -15 4 -10 0 -15 -11 -15 -11 0
-15 5 -11 15 5 13 -59 15 -534 15 l-540 0 0 -3196z m1100 3081 c0 -9 -6 -12
-15 -9 -8 4 -15 10 -15 15 0 5 7 9 15 9 8 0 15 -7 15 -15z m-20 -60 c0 -8 -4
-15 -10 -15 -5 0 -10 7 -10 15 0 8 5 15 10 15 6 0 10 -7 10 -15z m650 -15 c0
-13 -11 -13 -30 0 -12 8 -11 10 8 10 12 0 22 -4 22 -10z m1278 -122 c-21 -21
-51 -41 -67 -44 -16 -4 -40 -17 -52 -30 -12 -13 -25 -21 -29 -19 -4 3 -25 -11
-46 -31 -22 -20 -49 -43 -61 -51 -17 -11 -21 -21 -17 -38 3 -13 -2 -55 -11
-94 l-18 -71 -153 0 c-96 0 -154 4 -154 10 0 6 -7 10 -15 10 -8 0 -19 9 -25
20 -9 16 -8 20 5 20 14 0 16 9 11 51 -6 53 -16 79 -16 41 0 -16 -4 -20 -16
-15 -13 5 -15 1 -10 -23 14 -75 20 -110 18 -120 -1 -6 6 -18 15 -26 14 -12 48
-17 147 -20 98 -3 131 -7 134 -17 3 -8 1 -11 -4 -8 -11 6 -10 -25 5 -223 6
-80 11 -150 11 -157 0 -9 -90 -11 -382 -7 -632 8 -630 8 -662 29 -26 17 -27
20 -10 32 10 7 15 16 11 19 -4 4 -1 14 6 22 10 13 9 15 -5 10 -17 -7 -16 3 9
72 9 25 9 100 0 151 -3 23 -1 26 17 21 20 -4 21 -4 2 10 -20 15 -56 13 -56 -3
0 -5 -29 -9 -65 -9 -51 0 -63 -3 -59 -14 8 -20 -14 -30 -32 -15 -24 19 -28 3
-5 -20 17 -17 19 -26 11 -41 -12 -23 -13 -33 -1 -26 5 3 12 -14 15 -39 4 -24
11 -47 16 -50 4 -3 6 -14 3 -25 -3 -11 0 -20 6 -20 6 0 14 -15 19 -32 4 -18
15 -33 23 -34 34 -2 40 -4 35 -12 -3 -5 -28 -10 -57 -11 -42 -1 -50 1 -45 14
3 8 1 15 -4 15 -6 0 -10 -4 -10 -10 0 -17 -50 -23 -76 -9 -16 8 -28 9 -32 4
-4 -6 -34 -10 -67 -10 -45 0 -64 5 -77 18 -12 13 -17 15 -21 5 -4 -10 -9 -8
-17 5 -9 13 -15 15 -25 7 -9 -8 -14 -5 -18 10 -3 11 -1 20 4 20 17 0 9 20 -8
20 -16 1 -16 2 2 15 15 12 19 26 18 64 -1 36 3 54 18 69 20 22 25 57 9 67 -12
8 -1 35 15 35 8 0 11 -7 8 -18 -2 -10 3 -24 12 -32 14 -12 16 -11 10 12 -7 28
6 42 40 43 13 0 19 6 17 18 -3 20 -8 20 375 21 187 1 265 4 274 13 8 8 19 9
36 2 17 -6 30 -6 38 1 10 8 16 6 24 -7 10 -17 10 -17 11 0 0 17 6 18 57 11 95
-12 159 -9 178 6 9 8 24 15 32 16 25 4 29 15 10 29 -14 10 -27 11 -55 3 -20
-6 -70 -8 -112 -4 -41 3 -167 8 -280 12 -113 3 -241 7 -285 9 -44 2 -89 4
-101 5 -21 0 -49 42 -36 54 3 4 7 57 8 119 1 62 3 114 5 117 4 10 7 25 8 52
l1 28 404 -1 c378 -1 453 -5 500 -24 15 -7 17 -5 12 12 -6 20 -2 20 126 22 73
1 134 4 136 6 2 2 99 3 215 3 l212 -1 -37 -39z m-1648 6 c0 -8 -5 -12 -10 -9
-6 4 -8 11 -5 16 9 14 15 11 15 -7z m-324 -13 c-3 -5 3 -11 14 -14 13 -3 18
-10 14 -21 -3 -9 -1 -16 5 -16 6 0 11 9 11 20 0 21 8 25 26 12 23 -15 22 -40
-1 -62 -14 -13 -22 -27 -19 -31 9 -15 22 -10 29 10 4 13 12 17 30 13 20 -3 25
-10 25 -34 0 -17 7 -44 15 -61 15 -33 36 -149 28 -157 -2 -2 -8 2 -13 10 -6
10 -12 11 -22 2 -20 -16 -90 -12 -106 7 -8 9 -11 11 -8 5 6 -13 -24 -24 -66
-24 -19 0 -26 4 -22 13 3 10 -6 13 -36 13 -53 -1 -83 22 -86 68 -2 20 1 36 6
36 6 0 10 -9 10 -21 0 -49 89 -74 91 -25 0 20 1 20 10 -3 9 -22 11 -23 27 -7
10 9 26 16 36 16 9 0 14 4 11 10 -3 6 1 7 9 4 9 -3 16 -15 16 -26 0 -31 24
-15 31 20 7 34 -7 55 -17 28 -3 -9 -10 -13 -15 -10 -5 3 -5 13 1 24 13 24 -14
53 -40 45 -14 -4 -19 2 -24 30 -5 22 -13 35 -23 35 -9 0 -13 -6 -9 -15 4 -10
-1 -15 -14 -15 -11 0 -20 3 -20 8 1 13 27 42 39 42 15 0 14 17 -1 26 -6 4 -14
2 -16 -4 -2 -6 -10 -8 -18 -5 -11 4 -8 9 11 19 14 7 32 11 40 7 10 -3 15 2 15
16 0 12 6 21 16 21 8 0 13 -4 10 -9z m-136 -51 c0 -5 -4 -10 -10 -10 -5 0 -10
5 -10 10 0 6 5 10 10 10 6 0 10 -4 10 -10z m10 -110 c0 -5 -5 -10 -11 -10 -5
0 -7 5 -4 10 3 6 8 10 11 10 2 0 4 -4 4 -10z m40 6 c0 -11 -19 -15 -25 -6 -3
5 1 10 9 10 9 0 16 -2 16 -4z m68 -19 c8 -9 5 -19 -8 -37 -21 -28 -41 -20 -23
9 9 14 9 21 0 30 -8 8 -7 11 5 11 8 0 20 -6 26 -13z m-131 -49 c-3 -8 -6 -5
-6 6 -1 11 2 17 5 13 3 -3 4 -12 1 -19z m43 13 c0 -6 -4 -13 -10 -16 -5 -3
-10 1 -10 9 0 9 5 16 10 16 6 0 10 -4 10 -9z m-106 -212 c13 11 32 13 99 10
30 -1 37 -4 33 -17 -3 -10 -2 -23 2 -30 6 -8 -5 -27 -29 -54 -35 -37 -38 -44
-32 -84 5 -41 4 -44 -17 -44 -19 0 -20 -2 -10 -15 7 -8 19 -15 26 -15 8 0 14
-7 14 -15 0 -9 9 -15 24 -15 31 0 41 -16 37 -55 -4 -40 -17 -52 -40 -38 -14 9
-21 9 -30 0 -9 -9 -16 -8 -32 1 -16 10 -24 10 -42 -3 -25 -17 -47 -20 -47 -5
0 6 7 10 17 8 32 -6 35 85 2 112 -3 3 -8 15 -11 27 -5 18 -2 22 15 20 18 -2
23 5 27 33 4 29 9 34 28 32 15 -2 22 2 22 12 0 9 -5 16 -11 16 -6 0 -8 7 -5
16 9 23 -16 75 -32 69 -8 -3 -20 -5 -28 -5 -9 0 -12 -5 -9 -10 4 -6 10 -8 15
-5 5 3 12 0 16 -6 5 -9 0 -10 -14 -7 -13 4 -22 1 -22 -5 0 -7 -4 -6 -9 2 -5 8
-7 20 -4 28 3 7 -2 16 -11 19 -24 9 -21 37 4 29 13 -4 20 -2 20 7 0 8 5 6 11
-5 8 -13 14 -15 23 -8z m-134 1 c0 -5 -4 -10 -10 -10 -5 0 -10 5 -10 10 0 6 5
10 10 10 6 0 10 -4 10 -10z m503 -15 c36 -6 53 -25 22 -25 -8 0 -15 -5 -15
-12 0 -6 -7 -3 -15 8 -8 10 -15 15 -15 10 0 -5 -6 -3 -14 3 -8 6 -19 10 -26 9
-7 -2 -15 3 -17 10 -4 9 2 11 19 8 12 -3 40 -8 61 -11z m-153 -50 c0 -8 -4
-15 -10 -15 -5 0 -7 7 -4 15 4 8 8 15 10 15 2 0 4 -7 4 -15z m83 -10 c-3 -9
-8 -14 -10 -11 -3 3 -2 9 2 15 9 16 15 13 8 -4z m3404 -57 c-3 -8 -6 -5 -6 6
-1 11 2 17 5 13 3 -3 4 -12 1 -19z m-3404 -18 c-3 -11 -7 -20 -9 -20 -2 0 -4
9 -4 20 0 11 4 20 9 20 5 0 7 -9 4 -20z m481 9 c-4 -7 -44 0 -44 7 0 2 11 3
24 2 14 -1 23 -5 20 -9z m-634 -106 c-6 -19 -9 -22 -9 -9 -1 10 -9 25 -18 32
-17 13 -17 13 0 14 11 0 17 8 18 23 1 19 2 19 9 -5 5 -16 5 -40 0 -55z m600
63 c0 -3 -4 -8 -10 -11 -5 -3 -10 -1 -10 4 0 6 5 11 10 11 6 0 10 -2 10 -4z
m-956 -51 c0 0 -7 -11 -16 -24 -15 -20 -20 -22 -33 -11 -18 15 -30 7 -22 -15
4 -8 16 -15 27 -15 25 0 26 -15 3 -25 -17 -7 -16 -8 2 -15 11 -5 30 -6 42 -3
20 4 23 1 21 -20 -2 -23 -5 -25 -38 -19 -19 3 -36 9 -38 14 -5 11 -32 10 -32
-2 0 -5 -5 -10 -11 -10 -5 0 -7 5 -4 10 3 6 -4 10 -16 10 -18 0 -19 2 -9 15 8
9 8 15 2 15 -6 0 -10 9 -9 20 1 11 5 20 9 20 4 0 8 7 8 15 0 8 -4 15 -10 15
-5 0 -10 5 -10 11 0 7 10 9 25 5 19 -5 23 -3 19 9 -5 12 2 15 30 15 22 0 36 5
36 13 0 6 6 3 12 -8 7 -11 12 -20 12 -20z m110 11 c-3 -13 -1 -27 5 -30 16
-11 13 -43 -5 -50 -23 -9 -36 -7 -29 4 3 6 -1 10 -9 10 -21 0 -21 49 -1 56 8
4 12 11 8 17 -4 6 0 8 10 4 10 -3 17 -2 17 3 0 6 2 10 5 10 3 0 3 -11 -1 -24z
m2599 12 c3 -10 8 -10 17 -2 12 12 50 7 50 -6 0 -4 19 -10 43 -13 104 -12 162
-42 172 -88 5 -21 11 -29 21 -25 8 3 13 2 10 -3 -3 -4 5 -14 19 -21 13 -7 26
-22 29 -34 6 -26 -3 -66 -15 -66 -5 0 -9 -5 -9 -11 0 -5 5 -7 10 -4 6 3 10 -1
10 -9 0 -10 -9 -16 -22 -16 -13 0 -29 -4 -37 -9 -11 -7 -6 -13 20 -26 18 -10
53 -37 78 -61 25 -24 49 -44 53 -44 4 0 8 -9 8 -20 0 -11 7 -20 15 -20 8 0 14
-3 13 -7 -4 -21 34 -78 45 -67 10 10 38 -43 31 -60 -4 -11 -1 -16 13 -16 19 0
50 -47 38 -58 -3 -3 2 -14 12 -24 9 -10 12 -18 8 -18 -4 0 -1 -8 7 -17 17 -21
21 -92 6 -110 -6 -7 -8 -19 -5 -28 4 -8 2 -17 -4 -21 -5 -3 -7 -14 -4 -24 4
-12 -1 -19 -15 -23 -18 -4 -18 -8 -8 -37 8 -25 8 -34 -2 -40 -7 -5 -10 -15 -6
-25 9 -24 -35 -136 -51 -130 -13 4 -17 -12 -13 -48 1 -10 -4 -25 -10 -32 -10
-12 -15 -11 -31 8 l-19 22 -20 -24 c-11 -13 -20 -29 -20 -37 0 -10 -13 -14
-40 -14 -22 0 -40 -4 -40 -10 0 -5 -9 -10 -20 -10 -24 0 -26 18 -5 47 10 14
13 32 9 48 -4 15 -2 25 5 25 6 0 11 -4 11 -10 0 -5 18 -10 40 -10 22 0 40 5
40 10 0 6 -9 10 -19 10 -11 0 -23 5 -27 11 -3 6 -15 9 -25 6 -10 -3 -23 1 -29
8 -19 23 -68 29 -86 11 -25 -26 -44 -19 -64 26 -19 42 -44 57 -54 32 -8 -22
-47 -18 -40 4 5 15 4 15 -5 1 -9 -14 -16 -15 -53 -3 -24 7 -54 15 -68 18 -17
4 -30 18 -42 46 -9 22 -13 40 -9 40 14 0 51 41 51 56 0 12 -4 13 -21 3 -16 -8
-37 -8 -85 2 -35 7 -64 16 -64 21 0 4 -16 8 -35 8 -25 0 -35 -4 -35 -16 0 -12
-7 -14 -32 -9 -39 8 -87 60 -88 95 -1 25 -1 25 -12 3 -15 -31 -37 -38 -30 -10
3 12 11 25 18 29 13 9 105 144 149 221 30 53 59 77 91 77 27 0 48 -43 34 -70
-23 -43 51 -107 127 -108 11 0 39 -12 61 -26 22 -14 42 -22 46 -19 3 3 42 5
86 4 45 -1 107 3 139 10 48 9 58 14 54 28 -4 15 1 17 25 13 32 -4 92 22 92 40
0 6 8 20 17 30 17 19 16 19 -7 15 -14 -2 -19 -2 -13 0 13 5 14 53 2 53 -4 0
-31 20 -60 45 -29 25 -59 45 -66 45 -8 0 -28 7 -46 16 -21 11 -61 17 -122 19
-49 1 -100 7 -112 13 -17 9 -23 9 -27 -1 -5 -9 -7 -9 -12 1 -3 6 -10 10 -14 7
-5 -3 -28 -1 -52 4 -31 7 -44 7 -50 -2 -20 -32 -208 3 -208 38 0 14 -22 25
-50 25 -10 0 -32 12 -49 26 -24 20 -31 34 -31 62 1 53 34 75 111 74 l58 -1 23
42 c13 23 33 46 46 52 12 5 22 18 22 27 0 21 29 38 64 38 14 0 28 5 31 10 4 6
10 8 15 5 4 -3 10 2 14 10 7 18 23 20 29 3z m-2213 -28 c0 -5 -4 -10 -10 -10
-5 0 -10 5 -10 10 0 6 5 10 10 10 6 0 10 -4 10 -10z m-75 -77 c-5 -80 -7 -85
-14 -33 -3 26 -2 48 4 52 6 4 1 8 -10 8 -20 1 -20 1 -1 15 11 8 21 15 22 15 2
0 1 -26 -1 -57z m492 11 c-3 -3 -12 -4 -19 -1 -8 3 -5 6 6 6 11 1 17 -2 13 -5z
m73 -95 c0 -6 -4 -7 -10 -4 -5 3 -10 11 -10 16 0 6 5 7 10 4 6 -3 10 -11 10
-16z m-33 -73 c314 -3 509 0 546 6 45 8 61 8 66 -1 4 -7 12 -11 17 -10 20 4
26 -2 15 -15 -9 -11 -8 -15 5 -20 11 -4 18 0 21 14 3 11 10 20 17 19 6 -1 22
1 36 4 31 9 250 15 250 7 0 -3 26 -4 59 -3 l59 1 6 -59 c4 -32 3 -67 -2 -76
-5 -10 -8 -34 -6 -53 l4 -35 -10 33 c-13 40 -25 42 -16 2 3 -17 1 -30 -4 -30
-15 0 -12 -21 4 -34 8 -6 15 -31 17 -56 4 -88 21 -80 -180 -80 -99 0 -182 4
-185 9 -3 5 -22 12 -41 15 -24 5 -35 12 -35 24 -1 14 -2 14 -12 -3 -21 -40
-39 -45 -145 -45 l-103 0 0 26 c0 16 -5 24 -12 21 -7 -2 -12 -14 -11 -26 2
-15 -3 -21 -18 -21 -16 0 -19 4 -14 20 4 11 2 20 -4 20 -6 0 -11 -9 -11 -20 0
-25 -45 -28 -72 -3 -17 15 -18 15 -18 -2 0 -14 -3 -15 -14 -6 -8 7 -12 21 -9
31 4 15 0 20 -13 19 -11 0 -14 -3 -6 -6 20 -8 14 -26 -8 -20 -11 3 -22 1 -25
-3 -3 -5 5 -11 17 -13 13 -2 -14 -5 -59 -6 -46 0 -83 1 -83 3 0 19 16 36 34
35 11 0 15 -3 8 -6 -20 -8 -3 -23 26 -23 25 1 26 2 9 14 -13 10 -15 15 -5 18
7 3 -15 8 -49 12 -35 4 -63 11 -63 17 0 5 -11 7 -25 3 -19 -5 -30 0 -49 23
-14 15 -26 33 -26 38 0 6 -9 11 -20 12 -14 1 -20 -4 -20 -18 0 -10 -4 -19 -10
-19 -5 0 -10 9 -10 21 0 14 -5 19 -14 16 -9 -4 -16 3 -19 19 -5 27 19 46 32
27 9 -15 51 -26 51 -14 0 6 -11 13 -24 17 -14 3 -27 12 -30 20 -6 17 6 18 21
3 8 -8 13 -8 18 0 3 6 -1 14 -9 17 -9 3 -16 12 -16 20 0 8 -5 14 -10 14 -6 0
-15 10 -20 23 -8 20 -9 20 -10 2 0 -12 -3 -16 -8 -9 -11 17 -47 -8 -48 -33 0
-18 5 -23 23 -23 13 0 23 -4 23 -10 0 -5 -4 -10 -10 -10 -6 0 -8 -19 -5 -45 2
-25 0 -45 -5 -45 -6 0 -10 5 -10 11 0 5 -4 7 -10 4 -16 -10 -12 -25 7 -25 28
0 3 -15 -28 -16 -19 -1 -29 3 -29 12 0 8 -4 14 -10 14 -5 0 -10 -7 -10 -15 0
-8 -9 -15 -21 -15 -12 0 -18 4 -13 11 7 13 -15 31 -29 22 -4 -2 -3 -11 4 -19
10 -12 4 -14 -40 -13 -36 2 -51 6 -51 16 0 10 -5 11 -19 3 -26 -13 -71 -13
-102 2 -19 9 -26 20 -26 40 0 15 4 28 8 28 4 0 11 12 17 28 11 32 -7 59 -27
39 -8 -8 -11 -5 -11 11 0 15 6 22 20 22 11 0 20 5 20 11 0 5 -4 8 -9 5 -5 -3
-14 0 -20 8 -9 11 -9 15 1 19 7 3 3 6 -9 6 -16 1 -23 7 -23 21 0 11 5 20 11
20 5 0 7 -5 3 -12 -5 -7 0 -9 14 -6 16 5 23 0 31 -23 7 -19 15 -27 25 -23 11
4 13 0 9 -15 -3 -12 -9 -21 -14 -21 -5 0 -9 -5 -9 -10 0 -6 8 -10 17 -8 14 2
17 -3 15 -29 -3 -24 2 -34 17 -43 19 -10 20 -9 11 15 -15 39 -13 135 3 130 6
-3 23 4 37 15 l25 20 -27 0 c-16 0 -28 6 -28 13 0 8 -4 7 -10 -3 -11 -17 -13
-10 -4 14 5 12 10 13 25 6 11 -7 206 -12 506 -14z m-557 0 c0 -8 -4 -18 -10
-21 -5 -3 -10 3 -10 14 0 12 5 21 10 21 6 0 10 -6 10 -14z m335 -124 c-8 -8
-25 10 -19 20 4 6 9 5 15 -3 4 -7 6 -15 4 -17z m-635 -26 c0 -11 -19 -15 -25
-6 -3 5 1 10 9 10 9 0 16 -2 16 -4z m235 -15 c3 -5 1 -12 -5 -16 -5 -3 -10 1
-10 9 0 18 6 21 15 7z m-120 -81 c3 -5 2 -10 -4 -10 -5 0 -13 5 -16 10 -3 6
-2 10 4 10 5 0 13 -4 16 -10z m85 -20 c0 -5 -4 -10 -10 -10 -5 0 -10 5 -10 10
0 6 5 10 10 10 6 0 10 -4 10 -10z m-10 -25 c0 -2 -10 -10 -22 -16 -21 -11 -22
-11 -9 4 13 16 31 23 31 12z m2688 -80 c-2 -1 -18 -5 -36 -8 -30 -6 -32 -5
-22 13 9 17 14 18 35 8 14 -6 24 -12 23 -13z m-2115 -2 c-7 -2 -19 -2 -25 0
-7 3 -2 5 12 5 14 0 19 -2 13 -5z m817 -68 c7 -8 23 -15 37 -15 13 0 22 -4 19
-9 -4 -5 10 -5 32 0 20 4 54 4 75 -1 21 -4 36 -6 33 -3 -3 3 2 12 11 19 15 10
20 9 31 -7 7 -10 23 -19 35 -18 l22 1 -22 6 c-15 5 -20 11 -14 20 6 10 13 11
35 1 19 -9 23 -15 14 -21 -8 -5 -2 -6 15 -2 28 6 30 3 21 -33 -4 -15 -17 -23
-42 -29 -35 -7 -36 -7 -12 -15 16 -4 0 -6 -40 -4 -36 2 -72 6 -81 10 -13 5
-18 -2 -23 -30 -4 -19 -4 -39 -1 -44 3 -6 1 -12 -5 -16 -15 -9 -12 -25 5 -25
9 0 15 9 15 24 0 14 7 26 18 28 16 4 18 -2 18 -49 -1 -37 -4 -52 -13 -49 -6 3
-16 -1 -21 -7 -13 -16 -20 -97 -9 -97 23 0 -3 -25 -29 -28 -16 -2 -320 -5
-677 -8 l-647 -4 -12 27 c-10 25 -12 73 -9 183 0 19 -2 43 -5 53 -4 13 1 17
18 18 15 1 17 3 7 6 -24 6 -31 41 -11 53 16 9 16 9 0 10 -10 0 -18 4 -18 9 0
7 527 28 615 24 17 -1 123 -4 236 -8 206 -6 206 -6 260 19 62 29 101 33 119
11z m-1570 -29 c0 -8 11 -17 25 -20 16 -4 25 -13 25 -26 0 -27 -17 -34 -25
-10 -5 17 -10 19 -21 9 -8 -6 -14 -17 -14 -23 0 -6 5 -4 10 4 11 17 13 10 4
-14 -5 -13 -8 -13 -20 -1 -8 7 -11 21 -8 29 7 19 -21 22 -30 4 -5 -10 -7 -10
-12 0 -3 6 -9 10 -13 7 -13 -7 -79 14 -84 28 -3 9 13 12 60 12 36 0 70 3 76 7
18 12 27 9 27 -6z m219 -2 c2 -2 -9 -4 -24 -4 -22 0 -26 -3 -18 -11 6 -6 9
-18 6 -25 -3 -8 5 -18 18 -23 13 -5 19 -10 13 -10 -6 -1 -17 -14 -24 -31 -7
-16 -16 -30 -21 -30 -15 0 -10 -20 7 -27 21 -8 44 21 44 54 0 13 5 22 13 21 7
-2 12 7 12 21 0 28 22 40 31 16 4 -10 -2 -24 -15 -36 -26 -24 -26 -35 -3 -49
16 -11 16 -11 0 -6 -10 3 -18 1 -18 -4 0 -6 -7 -10 -15 -10 -8 0 -15 -4 -15
-9 0 -5 -9 -13 -20 -16 -11 -4 -18 -10 -15 -14 2 -5 -3 -17 -11 -27 -9 -10
-13 -13 -9 -6 3 6 1 12 -4 12 -15 0 -14 27 2 33 7 4 6 6 -5 6 -11 1 -15 7 -11
20 6 23 -19 37 -77 40 -24 2 -24 2 -6 16 10 8 23 12 27 9 5 -3 9 -1 9 5 0 5 6
11 13 14 6 2 1 2 -11 0 -15 -2 -21 0 -17 7 3 5 13 10 21 10 17 0 19 16 2 23
-10 4 -9 8 2 16 12 8 7 11 -20 11 -26 0 -31 3 -20 10 14 9 149 4 159 -6z
m1886 -29 c17 -1 38 -3 48 -3 9 -1 17 -10 17 -19 0 -15 -2 -16 -10 -3 -7 10
-10 11 -11 3 -1 -7 -2 -16 -3 -21 -2 -16 -46 -64 -61 -66 -8 -1 -22 -11 -30
-22 -8 -11 -15 -14 -15 -6 0 6 -7 12 -15 12 -11 0 -14 7 -9 25 3 14 2 25 -4
25 -12 0 -22 37 -15 57 7 19 43 34 63 26 8 -3 29 -7 45 -8z m-2189 -71 c-3 -8
-10 -14 -16 -14 -14 0 -12 47 3 53 14 5 21 -17 13 -39z m3504 -28 c0 -12 -7
-31 -15 -42 -13 -17 -14 -15 -10 26 2 25 4 46 4 48 1 2 6 0 11 -3 6 -3 10 -16
10 -29z m-1607 -31 c-5 -13 -23 -22 -23 -11 0 15 14 35 21 31 4 -3 6 -12 2
-20z m-1511 -38 c-3 -12 -13 -28 -21 -35 -14 -10 -14 -11 -1 -7 10 4 19 -5 27
-25 6 -16 8 -30 3 -30 -4 0 -10 -11 -12 -25 -4 -17 -1 -25 8 -25 8 0 14 -8 14
-19 0 -23 27 -47 49 -43 9 1 27 -7 40 -20 23 -21 25 -21 55 -4 17 10 25 12 19
5 -17 -17 -17 -30 0 -24 33 11 126 12 130 1 3 -8 7 -8 18 0 21 16 69 26 69 14
0 -15 40 -12 40 3 0 6 5 4 11 -5 5 -10 18 -18 29 -18 10 0 27 8 36 18 17 16
18 16 11 -2 -6 -15 -4 -17 13 -13 11 3 23 1 26 -4 3 -6 12 -5 22 3 11 10 16
10 19 1 3 -8 18 -5 51 9 48 22 94 26 115 11 7 -5 25 -10 42 -12 24 -2 27 -1
17 12 -10 12 -8 13 13 9 14 -2 25 -8 25 -13 0 -5 7 -9 15 -9 8 0 15 7 15 16 0
10 7 14 23 12 15 -2 21 -9 19 -20 -2 -10 2 -18 8 -18 6 0 8 5 5 10 -3 6 3 10
14 10 10 0 21 6 24 13 3 9 8 9 21 -2 12 -10 20 -11 27 -4 7 7 24 7 53 -2 23
-7 49 -9 57 -5 26 14 79 20 79 9 0 -6 16 -9 38 -8 21 2 43 0 49 -4 6 -4 35 -1
65 6 34 9 71 11 103 7 28 -4 42 -8 33 -9 -10 0 -18 -5 -18 -11 0 -15 16 -12
34 5 13 13 15 13 18 -1 2 -11 16 -18 38 -20 52 -6 60 -11 60 -37 0 -13 5 -28
12 -35 22 -22 81 -177 85 -225 7 -72 0 -76 -135 -77 -65 -1 -169 -2 -232 -3
-111 -2 -115 -1 -125 21 -5 12 -13 22 -17 22 -12 0 -9 -25 4 -38 9 -9 0 -12
-41 -12 -38 0 -51 4 -48 13 2 6 -3 17 -11 23 -11 8 -15 27 -14 63 0 28 -3 51
-9 51 -9 0 -14 -50 -10 -97 1 -12 -3 -24 -9 -28 -6 -4 -148 -9 -315 -12 -226
-4 -305 -3 -305 6 0 6 -7 11 -15 11 -8 0 -12 -6 -9 -14 4 -11 -4 -14 -33 -14
-35 0 -36 1 -13 10 20 7 22 11 10 18 -8 5 -30 10 -47 10 -25 0 -33 -4 -33 -17
0 -10 -4 -14 -8 -8 -7 10 -48 35 -57 35 -3 0 -5 -10 -5 -22 0 -12 -3 -18 -7
-15 -3 4 -11 3 -17 -2 -6 -5 -40 -10 -76 -11 -88 -2 -105 2 -45 10 l50 7 -52
1 c-29 1 -53 -3 -55 -9 -3 -10 -77 -15 -142 -9 -16 1 -41 13 -55 26 -14 13
-36 24 -48 24 -24 0 -31 -14 -13 -25 6 -3 10 -10 10 -15 0 -11 -281 -11 -295
0 -5 4 -19 10 -30 13 -18 4 -17 5 3 6 13 0 21 5 18 10 -3 4 -17 6 -31 3 -14
-2 -25 0 -25 7 0 5 7 8 16 4 14 -5 16 -2 11 19 -6 21 -3 27 16 32 12 3 24 1
25 -4 6 -16 22 -12 22 5 0 8 7 15 15 15 8 0 15 6 15 14 0 10 -10 14 -30 14
-16 -1 -30 -5 -30 -10 0 -4 -7 -8 -17 -8 -14 0 -14 2 2 20 10 11 21 17 26 14
5 -2 26 4 48 15 22 12 41 16 43 11 2 -6 14 -4 30 4 20 11 28 11 31 2 3 -7 27
-13 53 -15 55 -2 64 -8 67 -40 2 -27 43 -29 52 -2 16 53 15 93 -6 122 -11 16
-16 29 -10 29 6 0 11 -4 11 -10 0 -5 4 -10 10 -10 5 0 7 8 3 18 -13 35 -33 49
-79 51 -49 1 -64 6 -64 22 0 5 41 9 93 9 88 0 93 1 112 27 11 14 26 32 33 40
8 8 9 13 3 13 -6 0 -11 9 -11 20 0 11 -4 20 -10 20 -6 0 -9 3 -9 8 4 26 -3 41
-16 36 -8 -4 -12 -10 -9 -15 3 -5 -3 -9 -13 -9 -11 0 -24 -5 -31 -12 -7 -7
-12 -9 -12 -5 0 3 10 15 22 26 17 17 19 23 8 36 -7 9 -8 15 -2 15 6 0 12 -6
15 -12 3 -9 10 -7 21 7 12 14 15 33 12 66 -4 44 -3 46 27 55 38 12 58 -4 49
-39z m3059 -14 c-8 -15 -10 -15 -11 -2 0 17 10 32 18 25 2 -3 -1 -13 -7 -23z
m-3307 -49 c3 -8 10 -12 16 -9 5 3 10 2 10 -4 0 -15 -40 -25 -52 -13 -12 12
-4 42 11 42 5 0 12 -7 15 -16z m-144 -74 c0 -5 -4 -10 -9 -10 -6 0 -13 5 -16
10 -3 6 1 10 9 10 9 0 16 -4 16 -10z m1945 -30 c3 -5 1 -10 -4 -10 -6 0 -11 5
-11 10 0 6 2 10 4 10 3 0 8 -4 11 -10z m573 -4 c29 -8 55 -14 58 -15 2 0 19
-12 37 -27 21 -17 25 -24 12 -19 -147 50 -168 55 -200 49 -18 -3 -40 -2 -47 3
-9 5 2 10 32 14 25 3 47 7 50 7 3 1 29 -5 58 -12z m334 -51 c-4 -25 -25 -34
-37 -15 -3 6 -1 10 4 10 6 0 11 7 11 15 0 8 6 15 14 15 9 0 12 -8 8 -25z m813
5 c3 -5 1 -10 -4 -10 -6 0 -11 5 -11 10 0 6 2 10 4 10 3 0 8 -4 11 -10z
m-1908 -6 c-3 -3 -12 -4 -19 -1 -8 3 -5 6 6 6 11 1 17 -2 13 -5z m1633 -44 c0
-11 -4 -20 -9 -20 -5 0 -7 9 -4 20 3 11 7 20 9 20 2 0 4 -9 4 -20z m-464 -10
c21 0 33 -4 29 -10 -15 -24 -76 -3 -74 25 0 5 3 4 6 -2 2 -7 20 -13 39 -13z
m-3039 -6 c-3 -3 -12 -4 -19 -1 -8 3 -5 6 6 6 11 1 17 -2 13 -5z m117 -21 c-8
-35 -10 -37 -24 -28 -6 4 -8 15 -5 26 7 20 -13 27 -30 10 -6 -6 -17 -4 -29 5
-18 13 -15 14 37 14 l57 0 -6 -27z m86 17 c0 -5 -16 -10 -35 -10 -19 0 -35 5
-35 10 0 6 16 10 35 10 19 0 35 -4 35 -10z m3247 4 c-3 -3 -12 -4 -19 -1 -8 3
-5 6 6 6 11 1 17 -2 13 -5z m-943 -12 c3 -5 31 -5 62 -1 32 4 71 6 88 3 73
-12 78 -15 73 -33 -4 -18 0 -20 51 -24 15 -1 35 -11 44 -22 18 -21 24 -90 9
-99 -17 -11 -19 -56 -2 -66 14 -8 11 -14 -22 -43 -44 -40 -99 -45 -124 -12 -9
12 -14 14 -11 5 5 -12 -5 -15 -56 -14 -33 1 -71 -3 -83 -9 -17 -7 -30 -6 -55
6 -18 9 -35 14 -39 11 -12 -7 -20 32 -13 60 4 16 15 28 28 30 58 11 186 26
223 26 66 0 102 23 51 33 -18 3 -17 5 7 6 l30 1 -25 20 c-14 11 -33 20 -43 20
-10 0 -27 5 -39 11 -11 6 -40 11 -64 11 -24 0 -46 4 -50 9 -3 5 6 9 20 9 14 0
26 4 26 10 0 5 -7 7 -15 4 -8 -4 -21 -1 -29 5 -7 6 -16 8 -19 4 -4 -3 -7 -2
-7 4 0 6 -8 9 -19 6 -20 -5 -36 11 -26 27 8 12 22 13 29 2z m508 -22 c25 -23
29 -41 13 -52 -36 -26 -92 13 -81 56 7 30 34 28 68 -4z m470 -2 c-7 -7 -12 -8
-12 -2 0 6 3 14 7 17 3 4 9 5 12 2 2 -3 -1 -11 -7 -17z m-87 3 c3 -5 1 -12 -5
-16 -5 -3 -10 1 -10 9 0 18 6 21 15 7z m12 -53 c-3 -8 -6 -5 -6 6 -1 11 2 17
5 13 3 -3 4 -12 1 -19z m-3347 -88 c0 -5 -4 -10 -10 -10 -5 0 -10 5 -10 10 0
6 5 10 10 10 6 0 10 -4 10 -10z m294 -179 c17 -19 17 -19 -2 -14 -12 3 -23 11
-26 19 -8 20 8 17 28 -5z m539 12 c-7 -2 -21 -2 -30 0 -10 3 -4 5 12 5 17 0
24 -2 18 -5z m-608 -73 c-3 -5 -12 -10 -18 -10 -7 0 -6 4 3 10 19 12 23 12 15
0z m-118 -33 c4 -4 -7 -7 -24 -5 -18 1 -30 5 -28 8 5 9 43 6 52 -3z m-127
-158 c0 -9 -42 -19 -52 -13 -18 11 -6 23 22 21 16 -1 30 -5 30 -8z m415 -99
c3 -5 1 -10 -4 -10 -6 0 -11 5 -11 10 0 6 2 10 4 10 3 0 8 -4 11 -10z m-601
-25 c-25 -19 -40 -19 -24 0 7 8 20 15 28 15 13 0 12 -3 -4 -15z m27 -58 c-10
-9 -11 -8 -5 6 3 10 9 15 12 12 3 -3 0 -11 -7 -18z m576 1 c-3 -8 -6 -5 -6 6
-1 11 2 17 5 13 3 -3 4 -12 1 -19z m3124 -45 c-9 -16 -10 -14 -11 12 0 21 3
26 11 18 8 -8 8 -16 0 -30z m-306 -33 c4 -7 -3 -8 -22 -4 -38 9 -42 14 -10 14
14 0 29 -5 32 -10z m-2590 -31 c-4 -5 -14 -8 -23 -8 -15 1 -15 2 1 6 9 2 14 9
11 15 -4 7 -2 8 5 4 6 -4 9 -12 6 -17z m325 12 c0 -17 -18 -21 -24 -6 -3 9 0
15 9 15 8 0 15 -4 15 -9z m52 2 c-6 -2 -10 -9 -6 -14 3 -5 -4 -9 -16 -9 -17 0
-19 2 -8 15 7 8 20 14 28 14 10 0 11 -2 2 -6z m75 -9 c-3 -3 -12 -4 -19 -1 -8
3 -5 6 6 6 11 1 17 -2 13 -5z m-1149 -41 c-25 -4 -26 -7 -16 -26 26 -50 26
-53 7 -54 -10 -1 -21 2 -24 8 -4 5 -15 9 -26 9 -10 0 -19 4 -19 8 0 5 -10 19
-22 32 l-22 23 32 -6 c19 -4 32 -2 32 3 0 6 19 9 43 9 29 -2 34 -3 15 -6z
m129 -13 c-1 -12 -8 -20 -19 -20 -21 0 -24 -16 -5 -24 6 -3 2 -3 -10 -1 -12 3
-24 2 -27 -3 -12 -20 -15 -67 -4 -79 6 -7 8 -16 4 -20 -10 -10 -16 1 -21 36
-2 18 -9 39 -16 47 -11 14 -10 15 13 18 7 0 14 9 16 19 3 16 0 18 -20 12 l-23
-7 20 20 c13 13 33 21 57 21 31 1 37 -2 35 -19z m213 3 c0 -11 -5 -11 -20 -3
-11 6 -20 7 -20 2 0 -5 -25 -7 -56 -5 -53 4 -55 3 -49 -16 9 -29 -26 -28 -44
0 -18 30 -7 34 98 34 69 1 91 -2 91 -12z m-90 -49 c0 -31 -23 -28 -28 4 -2 15
2 22 12 22 11 0 16 -9 16 -26z m-60 -30 c0 -7 11 -15 25 -18 16 -4 25 -13 25
-25 0 -11 3 -26 6 -35 4 -10 1 -16 -10 -16 -9 0 -13 -6 -10 -14 3 -9 -3 -17
-15 -21 -12 -3 -21 -13 -21 -21 0 -20 -30 -18 -46 4 -8 10 -13 12 -14 5 0 -25
-30 -13 -30 11 0 13 -6 27 -12 30 -7 3 2 5 19 3 37 -2 50 16 16 21 -13 2 -23
9 -23 16 0 8 -3 28 -6 46 -6 30 -5 32 15 25 15 -4 21 -2 21 8 0 13 5 13 30 4
17 -6 30 -17 30 -23z m74 -250 c20 -7 21 -20 3 -27 -19 -7 -41 8 -33 22 8 13
9 13 30 5z m101 -14 c3 -6 -1 -7 -9 -4 -18 7 -21 14 -7 14 6 0 13 -4 16 -10z
m315 -40 c0 -5 -5 -10 -11 -10 -5 0 -7 5 -4 10 3 6 8 10 11 10 2 0 4 -4 4 -10z
m-550 -60 c0 -5 -4 -10 -9 -10 -5 0 -16 -3 -25 -6 -11 -4 -16 -1 -16 10 0 10
9 16 25 16 14 0 25 -4 25 -10z m300 -10 c0 -5 -4 -10 -10 -10 -5 0 -10 5 -10
10 0 6 5 10 10 10 6 0 10 -4 10 -10z m70 0 c0 -5 -4 -10 -10 -10 -5 0 -10 5
-10 10 0 6 5 10 10 10 6 0 10 -4 10 -10z m-110 -6 c0 -1 -5 -16 -11 -33 -9
-24 -14 -30 -23 -21 -8 8 -7 13 4 20 13 9 13 10 0 10 -72 4 -103 9 -112 18 -7
7 14 10 66 9 42 -1 76 -2 76 -3z m74 -3 c3 -5 -1 -11 -9 -15 -9 -3 -15 0 -15
9 0 16 16 20 24 6z m-244 -5 c0 -9 -30 -14 -35 -6 -4 6 3 10 14 10 12 0 21 -2
21 -4z m190 -26 c0 -5 -5 -10 -11 -10 -5 0 -7 5 -4 10 3 6 8 10 11 10 2 0 4
-4 4 -10z m194 -164 c-6 -15 -24 -23 -24 -11 0 8 24 34 28 30 1 -1 0 -10 -4
-19z m-706 -61 c-9 -9 -30 14 -23 25 6 9 10 8 17 -4 6 -10 8 -19 6 -21z m132
25 c0 -5 -5 -10 -11 -10 -5 0 -7 5 -4 10 3 6 8 10 11 10 2 0 4 -4 4 -10z m560
-25 c0 -8 -4 -15 -10 -15 -5 0 -7 7 -4 15 4 8 8 15 10 15 2 0 4 -7 4 -15z
m-60 -15 c0 -5 -7 -7 -15 -4 -8 4 -12 10 -9 15 6 11 24 2 24 -11z m74 -96 c7
-18 8 -64 2 -64 -2 0 -11 -3 -20 -6 -12 -5 -16 1 -16 24 0 54 20 82 34 46z
m-86 -95 c-22 -12 -23 -29 -3 -29 17 0 20 -16 5 -25 -5 -3 -10 -15 -10 -26 0
-11 -5 -17 -10 -14 -6 4 -8 10 -5 15 7 11 -5 40 -16 40 -5 0 -9 -9 -9 -20 0
-11 -5 -20 -11 -20 -6 0 -8 7 -5 15 3 9 -1 18 -9 21 -23 9 -18 33 8 38 55 12
63 14 72 15 6 0 2 -4 -7 -10z m-293 -9 c4 -6 -7 -10 -27 -9 -31 1 -32 1 -8 9
14 4 26 8 27 9 1 1 5 -3 8 -9z m138 -7 c-7 -2 -21 -2 -30 0 -10 3 -4 5 12 5
17 0 24 -2 18 -5z m1122 -3 c-3 -5 -3 -15 1 -22 12 -19 10 -81 -3 -85 -10 -4
-23 27 -37 90 -6 24 -4 27 19 27 15 0 24 -4 20 -10z m-1400 -10 c-3 -5 -11
-10 -16 -10 -6 0 -7 5 -4 10 3 6 11 10 16 10 6 0 7 -4 4 -10z m228 -20 c-3
-11 -7 -20 -9 -20 -2 0 -4 9 -4 20 0 11 4 20 9 20 5 0 7 -9 4 -20z m-46 -4 c3
-3 -3 -6 -15 -6 -11 0 -28 -10 -36 -22 -9 -12 -19 -18 -23 -14 -5 5 -2 11 5
13 6 3 12 11 12 18 0 7 -6 15 -12 18 -7 2 4 3 25 2 21 -1 41 -5 44 -9z m-104
-3 c-7 -2 -19 -2 -25 0 -7 3 -2 5 12 5 14 0 19 -2 13 -5z m480 -62 c2 -10 -3
-31 -13 -46 l-17 -26 -29 25 c-24 20 -27 28 -18 43 10 17 52 34 65 27 4 -2 9
-12 12 -23z m5 -204 c7 -8 7 -23 -1 -50 -9 -29 -17 -37 -36 -37 -20 0 -23 3
-17 28 4 15 8 34 9 42 4 28 28 38 45 17z m898 -295 c18 -67 18 -92 0 -92 -16
0 -23 17 -30 70 -2 19 -7 43 -11 53 -4 9 -4 29 0 45 l7 27 10 -25 c5 -14 16
-49 24 -78z m80 0 c-6 -72 -5 -70 -15 -52 -17 30 -24 102 -10 111 23 14 30 -2
25 -59z m-1006 -29 c26 -23 25 -40 -2 -54 -13 -6 -32 -20 -44 -30 -20 -19 -21
-19 -44 6 -21 22 -22 27 -10 50 7 14 27 29 44 34 17 5 32 10 33 10 2 1 12 -7
23 -16z m1213 -150 c55 -60 56 -61 41 -67 -8 -3 -14 -14 -14 -24 0 -30 -17
-38 -67 -32 -47 5 -48 6 -57 48 -13 61 3 92 47 92 19 0 41 -8 50 -17z m-438
-3 c3 -5 17 -10 31 -10 14 0 24 -6 24 -15 0 -7 6 -18 13 -22 8 -4 19 -17 25
-28 6 -11 12 -15 12 -9 0 6 19 11 45 11 l45 0 -1 -36 c-1 -109 -33 -154 -54
-78 -11 41 -25 50 -131 97 -38 16 -56 31 -68 57 -9 19 -13 32 -9 30 5 -2 17
-1 28 4 27 11 33 11 40 -1z m322 -36 c-3 -3 -12 -4 -19 -1 -8 3 -5 6 6 6 11 1
17 -2 13 -5z m-899 -72 c26 -15 46 -7 22 8 -8 6 -10 10 -5 10 6 0 16 -4 24 -9
11 -7 11 -10 0 -17 -30 -19 -65 -37 -89 -44 -14 -4 -33 -11 -42 -15 -28 -11
-22 18 10 52 29 32 45 35 80 15z m1042 -165 c14 -26 14 -29 -3 -42 -12 -8 -32
-11 -55 -8 -58 9 -83 55 -39 73 40 17 80 7 97 -23z m-1290 8 c-7 -8 -16 -15
-21 -15 -5 0 -6 7 -3 15 4 8 13 15 21 15 13 0 13 -3 3 -15z m140 -19 c0 -2 -7
-9 -15 -16 -13 -11 -14 -10 -9 4 5 14 24 23 24 12z m1127 -62 c-3 -3 -12 -4
-19 -1 -8 3 -5 6 6 6 11 1 17 -2 13 -5z m505 -31 c10 -9 18 -22 18 -30 0 -16
-22 -17 -38 -1 -8 8 -15 8 -27 -2 -13 -11 -15 -9 -15 13 0 37 32 48 62 20z
m-882 -65 c0 -2 -30 -25 -66 -53 -37 -27 -88 -71 -114 -97 -64 -65 -77 -61
-15 4 60 62 68 71 92 101 23 30 52 46 81 47 12 0 22 -1 22 -2z m705 -22 c0
-14 -8 -20 -28 -20 -32 -2 -42 7 -33 30 9 23 61 14 61 -10z m90 -6 c0 -20 -55
-36 -66 -19 -13 21 18 49 44 40 12 -5 22 -14 22 -21z m-738 -24 c4 -7 31 -18
58 -23 33 -7 41 -11 23 -12 -32 -1 -37 -16 -8 -24 24 -6 60 2 60 14 0 5 5 9
10 9 6 0 10 -11 10 -25 0 -22 4 -25 28 -23 24 3 27 0 24 -24 -4 -32 0 -34 34
-12 13 9 27 14 31 10 3 -3 1 -6 -6 -6 -8 0 -11 -7 -7 -15 8 -22 -38 -39 -63
-23 -14 9 -23 8 -41 -5 -30 -21 -64 -6 -55 24 5 15 2 19 -16 19 -18 0 -20 -2
-8 -16 10 -13 10 -17 -2 -24 -9 -7 -15 -5 -17 5 -2 8 -14 15 -28 15 -25 0 -33
15 -11 23 6 2 -14 8 -45 12 -32 4 -63 13 -69 21 -6 8 -16 11 -22 7 -7 -4 -8 0
-4 11 4 10 7 22 7 27 0 6 4 7 10 4 5 -3 7 0 4 9 -6 17 25 30 50 20 9 -3 16 -1
16 5 0 16 27 14 37 -3z m598 -114 c16 -51 11 -70 -18 -74 -33 -5 -178 55 -215
90 -8 7 -27 19 -43 27 -32 17 -38 35 -13 35 9 0 23 8 30 17 10 14 33 19 111
23 l98 5 18 -40 c11 -22 25 -60 32 -83z m73 76 c17 -17 15 -26 -7 -38 -25 -13
-51 -3 -51 20 0 28 37 39 58 18z m97 -53 c0 -16 -5 -30 -11 -32 -11 -4 -61 34
-53 41 14 12 46 25 54 22 6 -1 10 -15 10 -31z m-1332 -42 c11 -10 -24 -43 -45
-43 -25 0 -23 14 5 33 25 18 31 20 40 10z m1272 -43 c0 -19 -4 -24 -20 -22
-28 5 -39 18 -31 37 10 27 51 15 51 -15z m183 -18 c4 -26 -23 -30 -54 -8 -18
14 -18 15 6 25 33 13 44 9 48 -17z m-1528 2 c0 -8 -5 -12 -10 -9 -6 4 -8 11
-5 16 9 14 15 11 15 -7z m110 -8 c0 -16 -34 -40 -68 -49 -32 -8 -23 13 18 41
38 25 50 28 50 8z m1320 0 c0 -3 -4 -8 -10 -11 -5 -3 -10 -1 -10 4 0 6 5 11
10 11 6 0 10 -2 10 -4z m-16 -62 c8 -21 1 -31 -29 -36 -29 -6 -32 7 -8 34 20
22 29 23 37 2z m146 -16 c0 -25 -15 -35 -35 -27 -17 6 -17 8 -2 8 9 1 17 8 17
16 0 8 5 15 10 15 6 0 10 -6 10 -12z m1120 -38 c0 -22 5 -40 10 -40 6 0 10 -4
10 -9 0 -5 -11 -4 -25 2 -20 10 -25 19 -25 50 0 26 4 37 15 37 11 0 15 -11 15
-40z m17 -12 c-3 -7 -5 -2 -5 12 0 14 2 19 5 13 2 -7 2 -19 0 -25z m-292 -18
c3 -5 1 -10 -4 -10 -6 0 -11 5 -11 10 0 6 2 10 4 10 3 0 8 -4 11 -10z m145
-14 c0 -3 -4 -8 -10 -11 -5 -3 -10 -1 -10 4 0 6 5 11 10 11 6 0 10 -2 10 -4z
m517 -2 c-3 -3 -12 -4 -19 -1 -8 3 -5 6 6 6 11 1 17 -2 13 -5z m-317 -34 c0
-21 -15 -27 -25 -10 -7 12 2 30 16 30 5 0 9 -9 9 -20z m944 -243 c17 -12 17
-17 6 -50 -11 -30 -40 -53 -52 -42 -2 2 -1 26 0 54 4 53 14 61 46 38z m198
-53 c46 -8 55 -23 38 -64 -15 -36 -46 -46 -93 -31 -30 10 -34 15 -30 39 10 65
14 74 29 68 9 -3 34 -9 56 -12z m408 -94 c-7 -4 -9 -13 -5 -20 5 -8 1 -11 -13
-8 -11 2 -32 -8 -48 -22 -14 -14 -24 -18 -20 -10 3 8 9 23 12 33 4 10 20 21
35 24 16 3 29 10 29 15 0 5 5 6 11 2 8 -5 8 -9 -1 -14z m1247 -12 c-3 -8 -6
-5 -6 6 -1 11 2 17 5 13 3 -3 4 -12 1 -19z"/>
<path d="M2363 6025 c0 -22 2 -30 4 -17 2 12 2 30 0 40 -3 9 -5 -1 -4 -23z"/>
<path d="M2770 6019 c0 -5 5 -7 10 -4 6 3 10 8 10 11 0 2 -4 4 -10 4 -5 0 -10
-5 -10 -11z"/>
<path d="M2796 6005 c-3 -8 -1 -15 4 -15 6 0 10 7 10 15 0 8 -2 15 -4 15 -2 0
-6 -7 -10 -15z"/>
<path d="M2356 5962 c-7 -12 13 -52 26 -52 12 0 9 24 -5 45 -9 12 -16 14 -21
7z"/>
<path d="M2425 5870 c3 -5 8 -10 11 -10 2 0 4 5 4 10 0 6 -5 10 -11 10 -5 0
-7 -4 -4 -10z"/>
<path d="M1375 5610 c3 -5 12 -7 20 -3 21 7 19 13 -6 13 -11 0 -18 -4 -14 -10z"/>
<path d="M1220 5560 c-12 -8 -11 -10 8 -10 12 0 22 5 22 10 0 13 -11 13 -30 0z"/>
<path d="M1396 5521 c-3 -4 -1 -13 4 -21 7 -11 11 -11 24 2 14 14 13 16 -4 21
-11 3 -22 2 -24 -2z"/>
<path d="M1130 5415 c0 -8 7 -15 15 -15 8 0 15 7 15 15 0 8 -7 15 -15 15 -8 0
-15 -7 -15 -15z"/>
<path d="M1340 5360 c0 -5 5 -10 10 -10 6 0 10 5 10 10 0 6 -4 10 -10 10 -5 0
-10 -4 -10 -10z"/>
<path d="M1141 5333 c1 -22 2 -23 6 -8 3 11 10 23 17 27 7 5 5 8 -6 8 -13 0
-18 -7 -17 -27z"/>
<path d="M1410 5285 c0 -8 5 -15 10 -15 6 0 10 7 10 15 0 8 -4 15 -10 15 -5 0
-10 -7 -10 -15z"/>
<path d="M1090 5910 c0 -5 5 -10 11 -10 5 0 7 5 4 10 -3 6 -8 10 -11 10 -2 0
-4 -4 -4 -10z"/>
<path d="M1008 5743 c7 -3 16 -2 19 1 4 3 -2 6 -13 5 -11 0 -14 -3 -6 -6z"/>
<path d="M930 5310 c0 -5 5 -10 10 -10 6 0 10 5 10 10 0 6 -4 10 -10 10 -5 0
-10 -4 -10 -10z"/>
<path d="M3225 5240 c-3 -5 -1 -10 4 -10 6 0 11 5 11 10 0 6 -2 10 -4 10 -3 0
-8 -4 -11 -10z"/>
<path d="M3585 5140 c-3 -5 -1 -10 4 -10 6 0 11 5 11 10 0 6 -2 10 -4 10 -3 0
-8 -4 -11 -10z"/>
<path d="M3300 4583 c0 -4 16 -26 35 -47 38 -43 43 -43 21 -1 -14 27 -56 63
-56 48z"/>
<path d="M3880 4380 c0 -5 4 -10 9 -10 6 0 13 5 16 10 3 6 -1 10 -9 10 -9 0
-16 -4 -16 -10z"/>
<path d="M3834 4345 c-3 -14 -4 -29 0 -32 3 -4 6 1 6 10 0 22 17 22 23 0 4
-14 5 -14 6 3 0 12 -6 27 -14 34 -12 10 -15 7 -21 -15z"/>
<path d="M3743 4335 c0 -14 3 -25 8 -25 5 0 9 11 9 25 0 14 -4 25 -9 25 -5 0
-8 -11 -8 -25z"/>
<path d="M3608 4303 c7 -3 16 -2 19 1 4 3 -2 6 -13 5 -11 0 -14 -3 -6 -6z"/>
<path d="M1112 5140 c-7 -11 -10 -20 -6 -20 7 0 34 27 34 34 0 13 -16 5 -28
-14z"/>
<path d="M1258 5153 c7 -3 16 -2 19 1 4 3 -2 6 -13 5 -11 0 -14 -3 -6 -6z"/>
<path d="M1295 5150 c-11 -17 5 -32 21 -19 8 6 14 15 14 20 0 12 -27 11 -35
-1z"/>
<path d="M1392 5153 c-30 -4 -32 -6 -17 -17 21 -15 75 -8 75 10 0 8 -6 13 -12
12 -7 0 -28 -3 -46 -5z"/>
<path d="M1190 5131 c0 -5 5 -13 10 -16 6 -3 10 -2 10 4 0 5 -4 13 -10 16 -5
3 -10 2 -10 -4z"/>
<path d="M1680 5129 c0 -5 5 -7 10 -4 6 3 10 8 10 11 0 2 -4 4 -10 4 -5 0 -10
-5 -10 -11z"/>
<path d="M1760 5109 c0 -5 5 -7 10 -4 6 3 10 8 10 11 0 2 -4 4 -10 4 -5 0 -10
-5 -10 -11z"/>
<path d="M1060 5101 c0 -6 5 -13 10 -16 6 -3 10 1 10 9 0 9 -4 16 -10 16 -5 0
-10 -4 -10 -9z"/>
<path d="M1845 5080 c-3 -5 -1 -10 4 -10 6 0 11 5 11 10 0 6 -2 10 -4 10 -3 0
-8 -4 -11 -10z"/>
<path d="M1086 5051 c-4 -7 -5 -15 -2 -18 9 -9 19 4 14 18 -4 11 -6 11 -12 0z"/>
<path d="M1160 5045 c0 -8 7 -15 15 -15 8 0 15 7 15 15 0 8 -7 15 -15 15 -8 0
-15 -7 -15 -15z"/>
<path d="M980 5011 c0 -6 5 -13 10 -16 6 -3 10 1 10 9 0 9 -4 16 -10 16 -5 0
-10 -4 -10 -9z"/>
<path d="M1290 4960 c0 -5 5 -10 10 -10 6 0 10 5 10 10 0 6 -4 10 -10 10 -5 0
-10 -4 -10 -10z"/>
<path d="M2597 4914 c-11 -11 3 -24 25 -24 17 0 18 2 8 15 -13 16 -23 19 -33
9z"/>
<path d="M2230 4895 c-7 -9 -8 -15 -2 -15 5 0 12 7 16 15 3 8 4 15 2 15 -2 0
-9 -7 -16 -15z"/>
<path d="M1706 4891 c-4 -7 -5 -15 -2 -18 9 -9 19 4 14 18 -4 11 -6 11 -12 0z"/>
<path d="M2270 4830 c0 -5 5 -10 10 -10 6 0 10 5 10 10 0 6 -4 10 -10 10 -5 0
-10 -4 -10 -10z"/>
<path d="M2295 4810 c-3 -5 1 -10 9 -10 9 0 16 5 16 10 0 6 -4 10 -9 10 -6 0
-13 -4 -16 -10z"/>
<path d="M1123 4683 c-25 -10 -13 -22 13 -13 17 7 32 7 45 0 15 -8 19 -7 19 5
0 10 -10 15 -32 14 -18 0 -39 -3 -45 -6z"/>
<path d="M2013 4669 c10 -6 28 -8 40 -5 12 3 29 -1 39 -11 14 -13 20 -13 33
-3 25 21 7 30 -63 30 -52 -1 -63 -3 -49 -11z"/>
<path d="M2551 4670 c-18 -11 0 -19 23 -10 16 5 17 8 4 12 -8 4 -21 3 -27 -2z"/>
<path d="M2271 4661 c-16 -11 2 -50 24 -52 8 -1 20 -2 27 -3 7 0 15 -12 19
-26 4 -15 7 -18 8 -8 1 10 13 23 27 31 l25 13 -27 27 c-27 28 -75 36 -103 18z"/>
<path d="M2213 4640 c-20 -15 -21 -20 -8 -30 13 -10 15 -9 15 11 1 23 2 22 16
-6 8 -16 12 -23 10 -14 -2 9 0 21 5 26 6 6 5 14 -3 21 -10 7 -19 5 -35 -8z"/>
<path d="M1155 4640 c-3 -5 -1 -10 4 -10 6 0 11 5 11 10 0 6 -2 10 -4 10 -3 0
-8 -4 -11 -10z"/>
<path d="M2400 4640 c0 -5 5 -10 11 -10 5 0 7 5 4 10 -3 6 -8 10 -11 10 -2 0
-4 -4 -4 -10z"/>
<path d="M2160 4630 c0 -5 5 -10 11 -10 5 0 7 5 4 10 -3 6 -8 10 -11 10 -2 0
-4 -4 -4 -10z"/>
<path d="M1501 4614 c0 -11 3 -14 6 -6 3 7 2 16 -1 19 -3 4 -6 -2 -5 -13z"/>
<path d="M2391 4534 c0 -11 3 -14 6 -6 3 7 2 16 -1 19 -3 4 -6 -2 -5 -13z"/>
<path d="M2135 4240 c-3 -5 1 -10 10 -10 9 0 13 5 10 10 -3 6 -8 10 -10 10 -2
0 -7 -4 -10 -10z"/>
<path d="M2650 4164 c0 -8 5 -12 10 -9 6 3 10 10 10 16 0 5 -4 9 -10 9 -5 0
-10 -7 -10 -16z"/>
<path d="M2130 4120 c0 -16 5 -30 10 -30 6 0 10 14 10 30 0 17 -4 30 -10 30
-5 0 -10 -13 -10 -30z"/>
<path d="M2482 4137 c-15 -18 -3 -30 14 -16 8 6 21 9 29 5 8 -3 15 -1 15 4 0
6 -4 10 -9 10 -5 0 -16 2 -24 5 -7 3 -19 0 -25 -8z"/>
<path d="M2630 4090 c0 -5 5 -10 10 -10 6 0 10 5 10 10 0 6 -4 10 -10 10 -5 0
-10 -4 -10 -10z"/>
<path d="M2495 4070 c-3 -5 1 -10 9 -10 8 0 18 5 21 10 3 6 -1 10 -9 10 -8 0
-18 -4 -21 -10z"/>
<path d="M2510 4040 c0 -5 5 -10 10 -10 6 0 10 5 10 10 0 6 -4 10 -10 10 -5 0
-10 -4 -10 -10z"/>
<path d="M2695 4040 c-3 -5 1 -10 10 -10 9 0 13 5 10 10 -3 6 -8 10 -10 10 -2
0 -7 -4 -10 -10z"/>
<path d="M615 4021 c-3 -6 1 -13 9 -18 8 -4 15 -11 15 -15 1 -5 3 -8 6 -8 6 0
6 11 -1 33 -6 19 -19 22 -29 8z"/>
<path d="M820 3950 c0 -5 6 -10 14 -10 8 0 18 5 21 10 3 6 -3 10 -14 10 -12 0
-21 -4 -21 -10z"/>
<path d="M2505 3940 c-3 -5 3 -10 14 -10 12 0 21 5 21 10 0 6 -6 10 -14 10 -8
0 -18 -4 -21 -10z"/>
<path d="M910 3921 c0 -5 5 -13 10 -16 6 -3 10 -2 10 4 0 5 -4 13 -10 16 -5 3
-10 2 -10 -4z"/>
<path d="M982 3910 c-11 -17 -10 -20 7 -20 11 0 21 -6 24 -12 2 -7 4 2 3 19
-1 37 -15 43 -34 13z"/>
<path d="M1038 3923 c6 -2 18 -2 25 0 6 3 1 5 -13 5 -14 0 -19 -2 -12 -5z"/>
<path d="M2740 3920 c0 -5 5 -10 10 -10 6 0 10 5 10 10 0 6 -4 10 -10 10 -5 0
-10 -4 -10 -10z"/>
<path d="M1194 3910 c-5 -5 -25 -10 -44 -13 l-35 -4 40 -1 c41 -2 75 11 58 21
-6 4 -14 2 -19 -3z"/>
<path d="M1245 3902 c-12 -9 -18 -32 -7 -32 14 1 42 27 35 33 -8 9 -16 9 -28
-1z"/>
<path d="M698 3873 c7 -3 16 -2 19 1 4 3 -2 6 -13 5 -11 0 -14 -3 -6 -6z"/>
<path d="M3178 4163 c7 -3 16 -2 19 1 4 3 -2 6 -13 5 -11 0 -14 -3 -6 -6z"/>
<path d="M3295 4090 c3 -5 8 -10 11 -10 2 0 4 5 4 10 0 6 -5 10 -11 10 -5 0
-7 -4 -4 -10z"/>
<path d="M633 3204 c-10 -4 -9 -9 2 -20 17 -17 58 -9 52 9 -4 13 -35 19 -54
11z"/>
<path d="M2800 6344 c0 -8 -4 -12 -10 -9 -5 3 -10 2 -10 -4 0 -17 16 -21 35
-7 10 7 15 18 11 24 -10 17 -26 15 -26 -4z"/>
<path d="M6830 6344 c0 -16 18 -18 38 -5 10 6 7 10 -12 13 -18 4 -26 1 -26 -8z"/>
<path d="M1247 6276 c-6 -16 2 -28 14 -20 12 7 11 34 0 34 -5 0 -11 -6 -14
-14z"/>
<path d="M1530 6281 c0 -6 5 -13 10 -16 6 -3 10 1 10 9 0 9 -4 16 -10 16 -5 0
-10 -4 -10 -9z"/>
<path d="M2809 6264 c-8 -9 -14 -32 -14 -50 0 -31 2 -34 30 -33 28 0 28 1 9
11 -15 7 -20 16 -16 35 2 13 11 27 18 30 8 3 14 9 14 14 0 15 -27 10 -41 -7z"/>
<path d="M1540 6235 c-8 -9 -8 -15 -2 -15 12 0 26 19 19 26 -2 2 -10 -2 -17
-11z"/>
<path d="M6994 6165 c-16 -11 -76 -16 -265 -21 -232 -7 -650 -10 -714 -6 -23
2 -128 -2 -197 -7 -21 -2 -4 -19 30 -29 40 -13 199 -11 220 1 6 5 12 4 12 -1
0 -5 16 -6 38 -3 46 9 306 6 321 -3 6 -4 11 -2 11 5 0 6 8 9 20 6 11 -3 23 -1
26 4 4 6 10 6 17 0 7 -5 64 -9 127 -9 88 0 119 4 133 16 9 8 17 11 17 5 0 -5
14 -8 30 -5 17 2 36 0 43 -5 10 -8 37 -9 140 -4 9 0 25 0 35 0 9 0 67 2 127 5
61 3 132 5 158 5 46 1 48 2 45 28 -2 19 -9 27 -26 28 -13 1 -25 -1 -27 -5 -7
-11 -93 -11 -100 0 -3 6 -11 7 -17 4 -6 -4 -38 -9 -71 -11 -34 -2 -73 -5 -88
-7 -20 -2 -26 1 -22 10 7 18 2 17 -23 -1z"/>
<path d="M4875 6023 c-19 -10 -25 -18 -17 -21 8 -2 26 2 40 9 20 11 26 11 29
2 6 -16 43 -17 43 -2 0 5 -4 7 -10 4 -6 -3 -7 1 -4 9 8 22 -41 21 -81 -1z"/>
<path d="M4980 6036 c0 -4 7 -14 15 -22 8 -9 15 -11 15 -6 0 5 -7 15 -15 22
-8 7 -15 9 -15 6z"/>
<path d="M5020 6032 c0 -14 29 -48 30 -34 0 6 7 12 16 12 8 0 13 -4 10 -9 -12
-19 40 -20 72 -1 38 23 53 25 48 8 -1 -7 -1 -10 1 -5 3 4 11 7 19 7 8 0 14 4
14 9 0 5 10 12 23 14 12 3 -7 3 -42 2 -38 -2 -67 -8 -71 -16 -6 -9 -12 -9 -25
4 -18 19 -45 23 -45 7 0 -5 -7 -10 -15 -10 -8 0 -15 5 -15 10 0 6 -4 10 -10
10 -5 0 -10 -4 -10 -8z"/>
<path d="M4760 6001 c0 -34 19 -53 52 -50 42 4 55 -1 66 -23 9 -19 11 -20 11
-5 1 20 -21 47 -38 47 -10 0 -15 14 -12 33 0 4 -9 7 -20 7 -17 0 -19 -3 -10
-14 7 -8 8 -17 3 -20 -13 -8 -22 4 -22 31 0 14 -6 23 -15 23 -10 0 -15 -10
-15 -29z"/>
<path d="M5305 6010 c3 -6 -6 -15 -22 -22 -27 -11 -28 -12 -5 -16 15 -2 29 3
37 15 19 24 18 33 -1 33 -8 0 -12 -5 -9 -10z"/>
<path d="M5388 6013 c7 -3 16 -2 19 1 4 3 -2 6 -13 5 -11 0 -14 -3 -6 -6z"/>
<path d="M4968 5993 c-27 -7 -21 -23 8 -23 14 0 23 -4 19 -10 -4 -6 5 -10 19
-10 14 0 26 5 26 10 0 6 -5 10 -12 10 -6 0 -19 6 -27 13 -9 8 -24 12 -33 10z"/>
<path d="M5166 5981 c-4 -6 -2 -11 3 -11 6 0 11 -7 11 -15 0 -8 3 -15 6 -15 3
0 12 7 20 15 15 14 11 20 -10 16 -5 -1 -12 3 -16 10 -6 8 -9 8 -14 0z"/>
<path d="M7295 5981 c-7 -12 12 -24 25 -16 11 7 4 25 -10 25 -5 0 -11 -4 -15
-9z"/>
<path d="M7198 5956 c-16 -22 -16 -25 -1 -30 16 -7 45 21 40 38 -6 19 -22 15
-39 -8z"/>
<path d="M7060 5955 c0 -8 5 -15 10 -15 6 0 10 7 10 15 0 8 -4 15 -10 15 -5 0
-10 -7 -10 -15z"/>
<path d="M7254 5937 c3 -14 3 -27 -2 -30 -4 -2 -1 -2 6 -1 6 2 12 -1 12 -6 0
-6 5 -10 10 -10 6 0 10 11 10 25 0 19 -4 23 -17 18 -10 -4 -14 -2 -9 5 3 6 1
14 -5 18 -9 5 -10 -1 -5 -19z"/>
<path d="M4900 5940 c0 -5 5 -10 10 -10 6 0 10 5 10 10 0 6 -4 10 -10 10 -5 0
-10 -4 -10 -10z"/>
<path d="M7319 5948 c-6 -21 -5 -38 2 -38 5 0 9 9 9 20 0 16 -7 28 -11 18z"/>
<path d="M7345 5940 c-3 -5 1 -10 9 -10 9 0 16 5 16 10 0 6 -4 10 -9 10 -6 0
-13 -4 -16 -10z"/>
<path d="M4722 5905 c0 -16 2 -22 5 -12 2 9 2 23 0 30 -3 6 -5 -1 -5 -18z"/>
<path d="M7210 5879 c0 -5 -4 -8 -9 -5 -14 9 -21 -36 -8 -58 6 -12 10 -27 8
-35 -1 -7 3 -11 11 -8 7 2 12 13 11 23 -4 29 5 46 19 38 12 -8 56 -16 93 -17
11 0 23 -6 27 -11 4 -6 8 6 8 27 0 27 -4 37 -12 34 -7 -2 -12 -12 -12 -21 2
-18 -11 -22 -21 -6 -4 6 -10 8 -15 5 -5 -3 -12 -1 -15 5 -5 8 -11 7 -22 -1
-11 -10 -16 -10 -23 0 -5 9 -9 10 -14 2 -13 -20 -27 -1 -16 20 7 13 7 19 0 19
-5 0 -10 -5 -10 -11z"/>
<path d="M4721 5854 c0 -11 3 -14 6 -6 3 7 2 16 -1 19 -3 4 -6 -2 -5 -13z"/>
<path d="M7043 5855 c-19 -10 -19 -12 -6 -21 15 -9 14 -13 -2 -37 -20 -31 -59
-36 -74 -9 -8 13 -10 7 -11 -30 0 -31 -4 -48 -12 -49 -7 0 -24 -2 -38 -4 -75
-9 -382 -16 -645 -15 -165 0 -309 1 -320 0 -11 0 -105 -2 -210 -5 -226 -5
-760 -14 -897 -15 -90 0 -98 -2 -98 -19 0 -11 4 -23 10 -26 18 -11 79 -15 102
-6 22 9 22 10 -7 11 l-30 2 29 8 c21 7 32 5 43 -6 19 -19 29 -18 61 6 25 18
34 19 77 10 28 -5 66 -9 85 -9 74 3 170 -4 170 -12 0 -5 10 -9 23 -8 12 0 16
3 9 6 -6 2 -10 9 -6 14 3 5 12 5 23 -1 10 -5 22 -6 25 -2 4 4 31 8 59 9 29 1
68 4 87 6 19 2 39 -1 43 -7 6 -8 10 -8 14 2 6 14 33 16 33 2 0 -5 5 -10 11
-10 5 0 7 5 3 12 -5 7 -3 8 6 3 7 -4 63 -6 124 -5 181 5 481 -1 486 -10 3 -4
25 -6 50 -4 44 5 111 9 202 15 26 1 45 6 42 11 -3 4 2 8 10 8 8 0 17 -4 20 -8
7 -11 79 -16 240 -16 110 0 130 2 141 17 7 9 17 17 24 17 6 0 11 5 11 10 0 15
44 30 51 18 3 -5 22 -6 43 -3 l36 7 0 74 c0 40 -3 75 -7 77 -5 2 -18 -1 -30
-8z"/>
<path d="M4715 5810 c-3 -5 -1 -10 4 -10 6 0 11 5 11 10 0 6 -2 10 -4 10 -3 0
-8 -4 -11 -10z"/>
<path d="M6990 5800 c0 -5 5 -10 10 -10 6 0 10 5 10 10 0 6 -4 10 -10 10 -5 0
-10 -4 -10 -10z"/>
<path d="M7260 5790 c-8 -5 -11 -12 -7 -16 4 -4 13 -2 19 4 15 15 7 24 -12 12z"/>
<path d="M7160 5740 c0 -5 4 -10 9 -10 6 0 13 5 16 10 3 6 -1 10 -9 10 -9 0
-16 -4 -16 -10z"/>
<path d="M7274 5716 c-3 -9 -27 -14 -72 -15 -116 -5 -125 -6 -129 -18 -8 -22
33 -33 103 -27 38 3 97 6 132 6 57 1 62 3 62 23 0 18 -6 22 -32 22 -18 0 -39
-5 -47 -11 -11 -9 -13 -7 -7 12 8 23 -1 31 -10 8z m-97 -52 c-3 -3 -12 -4 -19
-1 -8 3 -5 6 6 6 11 1 17 -2 13 -5z"/>
<path d="M6970 5690 c0 -5 5 -10 10 -10 6 0 10 5 10 10 0 6 -4 10 -10 10 -5 0
-10 -4 -10 -10z"/>
<path d="M5115 5630 c-4 -6 3 -10 14 -10 25 0 27 6 6 13 -8 4 -17 2 -20 -3z"/>
<path d="M5160 5619 c0 -5 5 -7 10 -4 6 3 10 8 10 11 0 2 -4 4 -10 4 -5 0 -10
-5 -10 -11z"/>
<path d="M5756 5254 c-6 -15 5 -30 24 -35 3 -1 77 -3 165 -5 88 -1 175 -6 193
-10 20 -4 38 -2 47 6 12 10 15 9 15 -6 1 -18 1 -18 16 1 13 17 16 18 24 5 9
-13 11 -13 19 0 9 12 11 12 17 -3 4 -11 11 -14 18 -9 16 12 56 13 56 1 0 -6 9
-8 19 -4 11 3 22 1 26 -5 8 -14 21 -13 37 3 19 20 118 32 118 15 0 -9 3 -10 8
-2 9 15 506 18 497 4 -3 -6 -1 -10 4 -10 6 0 11 5 11 11 0 8 4 8 14 0 9 -8 43
-11 93 -10 43 2 84 -1 91 -5 7 -4 19 -3 27 4 10 9 19 8 38 -5 19 -12 27 -13
33 -4 4 8 3 9 -4 5 -7 -4 -12 -2 -12 3 0 6 5 11 10 11 6 0 10 6 10 14 0 11
-33 15 -172 18 -95 1 -226 1 -291 -2 -66 -3 -121 -2 -124 3 -2 4 -13 2 -23 -3
-12 -6 -95 -10 -202 -10 -101 1 -314 1 -475 1 -282 -1 -293 0 -306 20 -13 18
-15 18 -21 3z"/>
<path d="M5293 5225 c2 -5 33 -10 68 -10 35 0 67 -4 71 -10 5 -6 8 -5 8 3 0 7
14 12 38 12 21 0 44 -6 51 -12 11 -11 14 -10 18 0 4 10 8 10 21 0 10 -9 16 -9
19 -2 2 6 16 9 32 6 16 -2 32 1 35 7 8 13 -21 15 -226 15 -88 1 -137 -3 -135
-9z"/>
<path d="M6862 4850 c0 -14 2 -19 5 -12 2 6 2 18 0 25 -3 6 -5 1 -5 -13z"/>
<path d="M6950 4792 c0 -10 8 -18 18 -19 9 -1 29 -5 45 -9 17 -4 27 -2 27 5 0
6 -13 11 -30 11 -20 0 -30 5 -30 15 0 8 -7 15 -15 15 -8 0 -15 -8 -15 -18z"/>
<path d="M6728 4773 c7 -3 16 -2 19 1 4 3 -2 6 -13 5 -11 0 -14 -3 -6 -6z"/>
<path d="M7060 4770 c-12 -8 -12 -10 5 -12 27 -2 49 -5 55 -8 3 -1 41 -4 85
-6 44 -2 92 -6 107 -8 34 -7 58 2 58 19 0 20 -281 33 -310 15z"/>
<path d="M4430 4762 c0 -12 59 -22 66 -10 3 4 -4 8 -15 8 -10 0 -26 3 -35 6
-9 3 -16 2 -16 -4z"/>
<path d="M4930 4760 c-72 -4 -79 -6 -45 -12 22 -4 56 -4 75 -1 19 3 67 4 105
3 39 -1 85 -2 103 -2 17 1 32 -4 32 -9 0 -6 4 -7 10 -4 5 3 38 8 72 12 35 3
65 7 67 9 2 2 -43 5 -100 5 -57 1 -133 2 -169 3 -36 0 -103 -1 -150 -4z"/>
<path d="M6045 4760 c-25 -5 -27 -7 -12 -13 10 -4 26 -3 36 3 10 5 22 5 27 1
5 -5 30 -11 57 -14 36 -3 47 -1 47 9 0 8 -8 15 -17 16 -43 4 -110 3 -138 -2z"/>
<path d="M6217 4763 c-14 -13 -6 -24 15 -21 27 4 36 28 11 28 -11 0 -23 -3
-26 -7z"/>
<path d="M6280 4760 c0 -5 4 -10 9 -10 6 0 13 5 16 10 3 6 -1 10 -9 10 -9 0
-16 -4 -16 -10z"/>
<path d="M6630 4755 c0 -8 2 -15 4 -15 2 0 6 7 10 15 3 8 1 15 -4 15 -6 0 -10
-7 -10 -15z"/>
<path d="M5368 4753 c6 -2 18 -2 25 0 6 3 1 5 -13 5 -14 0 -19 -2 -12 -5z"/>
<path d="M4248 4473 c-26 -14 -45 -30 -42 -35 3 -5 12 -4 19 2 9 8 14 8 17 0
6 -18 33 -2 52 30 21 37 14 37 -46 3z"/>
<path d="M5635 4310 c-3 -5 1 -10 9 -10 9 0 16 5 16 10 0 6 -4 10 -9 10 -6 0
-13 -4 -16 -10z"/>
<path d="M6440 4314 c0 -2 8 -7 18 -13 11 -6 21 -5 29 4 10 11 7 13 -17 13
-17 -1 -30 -2 -30 -4z"/>
<path d="M6530 4312 c0 -10 296 -9 306 0 3 4 -64 7 -150 7 -86 1 -156 -2 -156
-7z"/>
<path d="M6983 4313 c9 -2 23 -2 30 0 6 3 -1 5 -18 5 -16 0 -22 -2 -12 -5z"/>
<path d="M7091 4316 c8 -8 194 -12 219 -5 14 4 -30 7 -99 8 -68 1 -122 -1
-120 -3z"/>
<path d="M7345 4310 c-3 -5 -2 -10 4 -10 5 0 13 5 16 10 3 6 2 10 -4 10 -5 0
-13 -4 -16 -10z"/>
<path d="M4570 4299 c0 -6 7 -9 15 -5 9 3 15 0 15 -8 0 -10 10 -12 41 -6 47 9
82 3 72 -13 -3 -6 -1 -7 5 -3 11 7 6 35 -7 37 -37 4 -63 3 -67 -3 -3 -5 -14
-4 -24 2 -25 13 -50 13 -50 -1z"/>
<path d="M4748 4278 c5 -18 7 -19 10 -6 3 14 18 18 90 21 l87 3 -97 2 c-95 2
-96 2 -90 -20z"/>
<path d="M4968 4293 c7 -3 16 -2 19 1 4 3 -2 6 -13 5 -11 0 -14 -3 -6 -6z"/>
<path d="M5963 4293 c9 -2 23 -2 30 0 6 3 -1 5 -18 5 -16 0 -22 -2 -12 -5z"/>
<path d="M4330 4259 c0 -5 5 -7 10 -4 6 3 10 8 10 11 0 2 -4 4 -10 4 -5 0 -10
-5 -10 -11z"/>
<path d="M4923 4263 c9 -2 25 -2 35 0 9 3 1 5 -18 5 -19 0 -27 -2 -17 -5z"/>
<path d="M6910 4239 c0 -5 5 -7 10 -4 6 3 10 8 10 11 0 2 -4 4 -10 4 -5 0 -10
-5 -10 -11z"/>
<path d="M4170 4226 c0 -2 7 -9 15 -16 13 -11 14 -10 9 4 -5 14 -24 23 -24 12z"/>
<path d="M6940 4205 c7 -8 16 -12 21 -9 13 8 1 24 -18 24 -13 0 -13 -3 -3 -15z"/>
<path d="M6995 3881 c-9 -15 3 -17 125 -21 205 -6 250 -5 250 3 0 4 -10 7 -22
8 -168 3 -298 9 -320 14 -15 3 -29 1 -33 -4z"/>
<path d="M4505 3860 c-3 -5 -1 -10 4 -10 6 0 11 5 11 10 0 6 -2 10 -4 10 -3 0
-8 -4 -11 -10z"/>
<path d="M4885 3860 c-24 -10 -26 -10 55 -16 94 -7 91 -7 138 -6 27 1 41 6 37
12 -4 7 -40 10 -88 9 -45 -1 -91 0 -102 4 -11 3 -29 2 -40 -3z"/>
<path d="M4760 3850 c0 -5 10 -10 23 -10 18 0 19 2 7 10 -19 13 -30 13 -30 0z"/>
<path d="M4815 3850 c-3 -5 1 -10 10 -10 9 0 13 5 10 10 -3 6 -8 10 -10 10 -2
0 -7 -4 -10 -10z"/>
<path d="M5133 3848 c2 -7 11 -11 18 -9 8 2 24 3 37 3 12 -1 22 3 22 8 0 6
-18 10 -41 10 -28 0 -39 -4 -36 -12z"/>
<path d="M5235 3849 c-11 -17 1 -21 15 -4 8 9 8 15 2 15 -6 0 -14 -5 -17 -11z"/>
<path d="M5387 3849 c7 -7 15 -10 18 -7 3 3 -2 9 -12 12 -14 6 -15 5 -6 -5z"/>
<path d="M5460 3850 c0 -5 5 -10 10 -10 6 0 10 5 10 10 0 6 -4 10 -10 10 -5 0
-10 -4 -10 -10z"/>
<path d="M5501 3843 c0 -10 3 -13 5 -6 3 7 13 9 22 6 15 -4 15 -3 2 6 -22 15
-30 14 -29 -6z"/>
<path d="M5293 3843 c15 -2 37 -2 50 0 12 2 0 4 -28 4 -27 0 -38 -2 -22 -4z"/>
<path d="M6378 3838 c17 -8 26 -8 34 0 9 9 4 12 -22 11 -33 0 -34 -1 -12 -11z"/>
<path d="M6510 3840 c0 -5 5 -10 10 -10 6 0 10 5 10 10 0 6 -4 10 -10 10 -5 0
-10 -4 -10 -10z"/>
<path d="M6680 3840 c0 -5 9 -10 20 -10 11 0 22 0 25 0 3 0 5 3 5 7 0 4 -11 8
-25 10 -14 2 -25 -1 -25 -7z"/>
<path d="M6750 3840 c0 -5 7 -10 16 -10 8 0 12 5 9 10 -3 6 -10 10 -16 10 -5
0 -9 -4 -9 -10z"/>
<path d="M6808 3838 c9 -9 15 -9 24 0 9 9 7 12 -12 12 -19 0 -21 -3 -12 -12z"/>
<path d="M4120 3800 c0 -5 5 -10 10 -10 6 0 10 5 10 10 0 6 -4 10 -10 10 -5 0
-10 -4 -10 -10z"/>
<path d="M3970 3790 c0 -5 7 -10 16 -10 8 0 12 5 9 10 -3 6 -10 10 -16 10 -5
0 -9 -4 -9 -10z"/>
<path d="M1540 3670 c-9 -6 -10 -10 -3 -10 6 0 15 5 18 10 8 12 4 12 -15 0z"/>
<path d="M1505 3660 c3 -5 8 -10 11 -10 2 0 4 5 4 10 0 6 -5 10 -11 10 -5 0
-7 -4 -4 -10z"/>
<path d="M1200 3640 c0 -5 5 -10 10 -10 6 0 10 5 10 10 0 6 -4 10 -10 10 -5 0
-10 -4 -10 -10z"/>
<path d="M2600 3619 c0 -11 4 -18 9 -15 5 3 14 -1 21 -9 14 -17 36 -10 43 15
3 14 -3 19 -25 24 -45 9 -48 8 -48 -15z"/>
<path d="M1540 3607 c0 -9 4 -18 9 -21 5 -4 8 1 7 9 -3 21 -16 31 -16 12z"/>
<path d="M797 3588 c-3 -12 -4 -25 -1 -30 8 -13 24 -9 24 6 0 8 5 16 12 18 15
5 1 28 -16 28 -8 0 -16 -10 -19 -22z"/>
<path d="M1290 3540 c0 -5 5 -10 10 -10 6 0 10 5 10 10 0 6 -4 10 -10 10 -5 0
-10 -4 -10 -10z"/>
<path d="M2516 3534 c-5 -14 -4 -15 9 -4 17 14 19 20 6 20 -5 0 -12 -7 -15
-16z"/>
<path d="M626 3531 c-19 -7 -19 -8 0 -16 10 -4 29 -8 41 -9 21 -2 21 0 6 16
-18 20 -19 20 -47 9z"/>
<path d="M770 3530 c0 -5 4 -10 9 -10 6 0 13 5 16 10 3 6 -1 10 -9 10 -9 0
-16 -4 -16 -10z"/>
<path d="M2608 3523 c-18 -21 -30 -63 -18 -63 8 0 50 62 50 74 0 12 -17 6 -32
-11z"/>
<path d="M2552 3498 c-14 -14 -16 -38 -3 -38 8 0 23 41 17 47 -1 1 -8 -3 -14
-9z"/>
<path d="M2383 3463 c-18 -7 -16 -23 2 -23 8 0 15 7 15 15 0 8 -1 15 -2 14 -2
0 -9 -3 -15 -6z"/>
<path d="M1790 3440 c0 -5 5 -10 11 -10 5 0 7 5 4 10 -3 6 -8 10 -11 10 -2 0
-4 -4 -4 -10z"/>
<path d="M2321 3441 c-9 -6 -10 -11 -2 -15 13 -8 31 1 31 15 0 11 -11 11 -29
0z"/>
<path d="M655 3430 c-3 -5 -1 -10 4 -10 6 0 11 5 11 10 0 6 -2 10 -4 10 -3 0
-8 -4 -11 -10z"/>
<path d="M1505 3430 c-3 -5 3 -10 14 -10 12 0 21 5 21 10 0 6 -6 10 -14 10 -8
0 -18 -4 -21 -10z"/>
<path d="M2401 3424 c0 -7 -10 -14 -21 -17 -22 -6 -27 -41 -10 -67 7 -12 12
-7 25 24 9 21 14 45 12 54 -3 10 -5 12 -6 6z"/>
<path d="M4157 3414 c-4 -4 -7 -14 -7 -23 0 -11 3 -12 11 -4 6 6 10 16 7 23
-2 6 -7 8 -11 4z"/>
<path d="M4466 3388 c7 -11 94 -10 94 0 0 5 -22 8 -49 8 -27 0 -47 -4 -45 -8z"/>
<path d="M4625 3391 c-11 -5 28 -7 89 -5 60 2 112 6 114 9 9 8 -182 4 -203 -4z"/>
<path d="M5438 3393 c7 -3 16 -2 19 1 4 3 -2 6 -13 5 -11 0 -14 -3 -6 -6z"/>
<path d="M5538 3393 c7 -3 16 -2 19 1 4 3 -2 6 -13 5 -11 0 -14 -3 -6 -6z"/>
<path d="M6328 3393 c6 -2 18 -2 25 0 6 3 1 5 -13 5 -14 0 -19 -2 -12 -5z"/>
<path d="M6552 3388 c2 -5 7 -9 11 -9 4 1 16 1 27 1 32 0 23 15 -10 16 -17 1
-29 -3 -28 -8z"/>
<path d="M6670 3390 c0 -5 5 -10 10 -10 6 0 10 5 10 10 0 6 -4 10 -10 10 -5 0
-10 -4 -10 -10z"/>
<path d="M6742 3388 c14 -5 48 -5 74 0 48 9 47 9 -25 8 -54 0 -67 -2 -49 -8z"/>
<path d="M7051 3390 c8 -5 41 -11 72 -13 32 -3 63 -10 71 -16 11 -9 15 -8 20
5 5 13 19 15 81 12 55 -2 75 0 75 10 0 9 -40 12 -167 12 -108 0 -162 -4 -152
-10z"/>
<path d="M2480 3350 c0 -11 5 -20 10 -20 6 0 10 9 10 20 0 11 -4 20 -10 20 -5
0 -10 -9 -10 -20z"/>
<path d="M2520 3348 c0 -19 2 -20 10 -8 13 19 13 30 0 30 -5 0 -10 -10 -10
-22z"/>
<path d="M2230 3347 c-14 -8 -24 -19 -22 -26 1 -7 -3 -20 -9 -27 -9 -11 -9
-18 -1 -26 18 -18 63 2 83 37 24 41 23 46 -8 39 -22 -4 -25 -3 -13 5 21 15 0
13 -30 -2z"/>
<path d="M2595 3349 c-4 -6 -5 -12 -2 -15 2 -3 7 2 10 11 7 17 1 20 -8 4z"/>
<path d="M4322 3323 c-29 -3 -45 -10 -48 -21 -3 -9 -19 -46 -36 -82 -29 -60
-29 -65 -14 -90 8 -14 20 -24 26 -22 6 1 16 -11 22 -28 15 -43 46 -58 67 -32
9 11 27 25 40 32 21 11 27 8 66 -37 42 -48 43 -48 64 -29 29 26 27 33 -11 40
-43 8 -77 35 -83 64 -2 13 -7 32 -10 43 -4 13 -2 19 9 19 9 0 16 6 16 14 0 15
65 76 81 76 13 0 1 42 -15 52 -11 8 -94 8 -174 1z"/>
<path d="M1840 3309 c-27 -11 -20 -19 27 -33 20 -6 23 -4 21 18 -3 28 -9 30
-48 15z"/>
<path d="M2060 3316 c0 -2 7 -7 16 -10 8 -3 12 -2 9 4 -6 10 -25 14 -25 6z"/>
<path d="M1510 3286 c0 -9 39 -13 51 -5 10 6 4 9 -18 9 -18 0 -33 -2 -33 -4z"/>
<path d="M2335 3276 c-3 -9 -7 -23 -10 -31 -5 -19 21 -46 39 -39 20 8 48 68
34 73 -5 2 -14 -2 -18 -9 -5 -8 -11 -7 -24 5 -14 15 -17 15 -21 1z"/>
<path d="M2010 3267 c0 -12 51 -57 65 -57 12 0 4 40 -11 54 -19 19 -54 21 -54
3z"/>
<path d="M1010 3261 c0 -5 7 -12 16 -15 14 -5 15 -4 4 9 -14 17 -20 19 -20 6z"/>
<path d="M970 3250 c0 -5 7 -10 16 -10 8 0 12 5 9 10 -3 6 -10 10 -16 10 -5 0
-9 -4 -9 -10z"/>
<path d="M1000 3225 c0 -18 19 -40 26 -32 4 4 0 15 -9 24 -9 10 -17 13 -17 8z"/>
<path d="M1690 3210 c0 -5 -7 -10 -15 -10 -20 0 -19 -12 5 -38 11 -12 27 -19
35 -16 19 8 19 41 1 60 -17 16 -26 18 -26 4z"/>
<path d="M2223 3213 c-32 -6 -30 -33 2 -33 14 0 25 2 25 4 0 2 3 11 6 20 3 9
2 15 -2 15 -5 -1 -19 -4 -31 -6z"/>
<path d="M1800 3201 c0 -12 56 -71 67 -71 15 0 13 44 -4 62 -17 19 -63 25 -63
9z"/>
<path d="M2004 3150 c0 -13 7 -20 18 -20 10 0 18 -4 18 -8 0 -5 11 -14 25 -20
32 -15 32 -10 -6 33 -35 39 -55 45 -55 15z"/>
<path d="M4430 3160 c0 -5 5 -10 11 -10 5 0 7 5 4 10 -3 6 -8 10 -11 10 -2 0
-4 -4 -4 -10z"/>
<path d="M1393 3128 c-34 -24 -44 -44 -17 -34 9 3 22 6 30 6 9 0 12 5 9 10 -3
6 1 10 9 10 9 0 16 7 16 15 0 20 -10 19 -47 -7z"/>
<path d="M4487 3115 c-4 -8 -3 -16 1 -19 4 -3 9 4 9 15 2 23 -3 25 -10 4z"/>
<path d="M1524 3105 c-9 -23 5 -35 43 -35 27 0 34 4 30 14 -4 10 -1 14 11 10
9 -2 4 2 -13 10 -39 19 -64 20 -71 1z"/>
<path d="M2214 3095 c-8 -19 2 -45 16 -45 5 0 10 14 10 30 0 31 -16 41 -26 15z"/>
<path d="M1800 3060 c0 -18 5 -30 13 -30 7 0 20 -9 30 -20 20 -24 37 -18 37
12 0 11 -8 22 -20 25 -11 3 -20 11 -20 18 0 11 -20 25 -36 25 -2 0 -4 -13 -4
-30z"/>
<path d="M4145 3070 c3 -5 10 -10 16 -10 5 0 9 5 9 10 0 6 -7 10 -16 10 -8 0
-12 -4 -9 -10z"/>
<path d="M1107 3020 c19 -22 29 -19 20 5 -4 8 -13 15 -22 15 -13 0 -12 -3 2
-20z"/>
<path d="M2552 3016 c-6 -15 -8 -35 -4 -47 8 -20 8 -20 20 5 6 15 8 35 4 47
-8 20 -8 20 -20 -5z"/>
<path d="M2010 3001 c0 -24 5 -30 28 -33 15 -3 35 -9 45 -13 14 -6 17 -2 17
22 0 26 -5 31 -39 41 -51 16 -51 16 -51 -17z"/>
<path d="M2715 3011 c-26 -14 -30 -20 -25 -46 5 -27 9 -30 48 -33 47 -3 48 0
30 59 -13 44 -11 43 -53 20z"/>
<path d="M4128 3017 c-9 -7 -20 -26 -24 -43 -5 -24 -4 -27 7 -16 7 6 21 12 31
12 10 0 18 3 18 8 0 4 3 17 6 30 7 25 -11 29 -38 9z"/>
<path d="M1358 3010 c-2 -6 -16 -13 -31 -14 -38 -4 -49 -18 -45 -54 3 -29 4
-30 38 -18 29 9 35 17 42 50 8 36 5 62 -4 36z"/>
<path d="M2355 2985 c-22 -7 -31 -13 -20 -14 15 -1 16 -4 7 -13 -15 -15 -15
-28 -1 -28 5 0 7 5 4 10 -3 6 -1 10 4 10 6 0 11 -4 11 -10 0 -5 14 -10 31 -10
28 0 31 3 25 23 -3 12 -6 28 -6 35 0 14 -3 14 -55 -3z"/>
<path d="M1126 2962 c-3 -6 -1 -14 5 -17 14 -9 20 -2 10 14 -6 8 -11 9 -15 3z"/>
<path d="M4023 2936 c-18 -12 -32 -28 -33 -37 0 -12 11 -6 36 18 43 40 42 48
-3 19z"/>
<path d="M7097 2947 c2 -4 -8 -5 -24 -2 l-28 5 25 -11 c14 -7 30 -11 35 -9 23
6 120 -2 132 -11 7 -6 38 -11 70 -12 52 0 58 2 61 21 3 21 -1 22 -70 24 -174
3 -206 3 -201 -5z"/>
<path d="M5828 2929 c-8 -6 1 -9 25 -9 20 0 37 2 37 4 0 9 -50 12 -62 5z"/>
<path d="M5924 2929 c-26 -4 -24 -6 16 -10 66 -8 247 -3 238 6 -8 8 -218 11
-254 4z"/>
<path d="M6758 2933 c7 -3 16 -2 19 1 4 3 -2 6 -13 5 -11 0 -14 -3 -6 -6z"/>
<path d="M1650 2915 c0 -8 -4 -15 -10 -15 -25 0 -6 -20 24 -26 19 -3 37 -13
41 -22 6 -15 8 -15 21 2 22 31 17 43 -26 60 -49 20 -50 20 -50 1z"/>
<path d="M5191 2927 c2 -1 12 -9 22 -16 14 -12 17 -11 17 3 0 10 -8 16 -22 16
-12 0 -19 -1 -17 -3z"/>
<path d="M5250 2920 c0 -11 9 -13 64 -10 23 1 42 -4 47 -12 7 -10 9 -10 9 2 0
14 18 16 130 13 75 -1 132 2 135 7 4 6 -66 10 -189 10 -124 0 -196 -4 -196
-10z"/>
<path d="M5698 2923 c7 -3 16 -2 19 1 4 3 -2 6 -13 5 -11 0 -14 -3 -6 -6z"/>
<path d="M5748 2923 c12 -2 30 -2 40 0 9 3 -1 5 -23 4 -22 0 -30 -2 -17 -4z"/>
<path d="M6240 2919 c0 -5 5 -7 10 -4 6 3 10 8 10 11 0 2 -4 4 -10 4 -5 0 -10
-5 -10 -11z"/>
<path d="M6423 2923 c15 -2 37 -2 50 0 12 2 0 4 -28 4 -27 0 -38 -2 -22 -4z"/>
<path d="M4019 2897 c-13 -13 -45 -36 -71 -53 -52 -31 -62 -50 -24 -40 23 6
24 4 19 -27 -6 -37 -6 -37 38 23 19 25 47 62 62 83 32 42 15 52 -24 14z"/>
<path d="M2020 2849 c0 -23 48 -71 64 -66 6 2 12 21 13 43 2 28 0 33 -6 19 -7
-16 -9 -17 -17 -4 -5 9 -19 18 -31 21 -18 5 -23 2 -23 -13z"/>
<path d="M1292 2832 c-27 -4 -44 -34 -40 -70 3 -29 20 -32 71 -13 23 9 27 16
27 50 0 42 0 42 -58 33z"/>
<path d="M1468 2818 c-1 -25 1 -61 5 -64 1 -1 26 -5 55 -9 l52 -7 0 35 c0 42
-12 53 -67 62 -40 6 -43 5 -45 -17z"/>
<path d="M2565 2830 c-3 -5 -1 -18 4 -27 9 -16 10 -14 11 10 0 28 -5 34 -15
17z"/>
<path d="M3849 2824 c-57 -30 -62 -71 -8 -60 23 4 29 2 29 -11 0 -9 -7 -24
-15 -33 -14 -16 -14 -18 5 -23 11 -3 22 -1 25 4 3 4 12 6 20 2 11 -4 13 -1 9
11 -4 11 -2 16 7 14 8 -2 14 3 13 10 -1 6 -2 18 -2 26 -1 8 -11 18 -22 21 -13
4 -20 15 -20 31 0 27 -4 28 -41 8z"/>
<path d="M2788 2812 c-10 -2 -18 -12 -18 -24 0 -12 3 -18 7 -15 3 4 12 -1 19
-11 7 -9 16 -13 20 -9 5 4 2 12 -5 16 -7 5 -9 10 -3 12 16 7 -2 35 -20 31z"/>
<path d="M3045 2764 c4 -11 9 -36 12 -56 5 -31 10 -38 29 -38 l23 0 -18 53
c-11 33 -24 53 -36 56 -14 2 -16 -1 -10 -15z"/>
<path d="M2197 2651 c-9 -44 -9 -51 2 -51 13 0 18 31 11 60 -6 24 -7 23 -13
-9z"/>
<path d="M1474 2636 c-11 -29 2 -50 45 -73 66 -35 77 -32 73 21 -4 42 -6 44
-40 51 -21 3 -45 8 -55 11 -10 3 -20 -1 -23 -10z"/>
<path d="M2581 2624 c0 -11 3 -14 6 -6 3 7 2 16 -1 19 -3 4 -6 -2 -5 -13z"/>
<path d="M1031 2604 c0 -11 3 -14 6 -6 3 7 2 16 -1 19 -3 4 -6 -2 -5 -13z"/>
<path d="M2221 2594 c0 -11 3 -14 6 -6 3 7 2 16 -1 19 -3 4 -6 -2 -5 -13z"/>
<path d="M2375 2591 c-3 -5 -1 -12 5 -16 5 -3 10 1 10 9 0 18 -6 21 -15 7z"/>
<path d="M3010 2581 c0 -11 5 -23 10 -26 6 -4 10 5 10 19 0 14 -4 26 -10 26
-5 0 -10 -9 -10 -19z"/>
<path d="M1455 2540 c3 -5 8 -10 11 -10 2 0 4 5 4 10 0 6 -5 10 -11 10 -5 0
-7 -4 -4 -10z"/>
<path d="M3116 2528 c14 -47 23 -66 33 -73 14 -8 14 -4 0 51 -7 27 -17 44 -26
44 -10 0 -12 -6 -7 -22z"/>
<path d="M3175 2513 c7 -40 12 -49 20 -42 8 9 -7 79 -17 79 -6 0 -7 -15 -3
-37z"/>
<path d="M1490 2534 c0 -5 23 -20 51 -33 53 -24 55 -37 4 -43 -28 -3 -30 -5
-30 -48 l0 -45 49 -8 c27 -4 53 -4 57 0 4 4 10 34 13 66 l5 57 -41 26 c-41 26
-108 43 -108 28z"/>
<path d="M1284 2440 l-10 -60 47 0 c39 0 53 5 77 30 17 17 25 30 18 30 -7 0
-20 8 -30 19 -11 12 -25 16 -41 13 -18 -3 -25 0 -25 12 0 9 -6 16 -13 16 -8 0
-17 -22 -23 -60z"/>
<path d="M5896 2468 c-6 -4 -7 -8 -1 -9 6 0 21 -3 35 -5 40 -7 43 -7 85 3 39
10 38 10 -34 14 -40 2 -78 1 -85 -3z"/>
<path d="M6130 2460 c0 -12 2 -12 9 -2 7 11 9 10 15 -3 3 -10 11 -13 18 -8 7
4 39 8 70 8 32 0 62 5 67 10 6 7 -24 10 -85 10 -77 0 -94 -3 -94 -15z"/>
<path d="M6658 2473 c6 -2 18 -2 25 0 6 3 1 5 -13 5 -14 0 -19 -2 -12 -5z"/>
<path d="M6748 2473 c7 -3 16 -2 19 1 4 3 -2 6 -13 5 -11 0 -14 -3 -6 -6z"/>
<path d="M7278 2473 c7 -3 16 -2 19 1 4 3 -2 6 -13 5 -11 0 -14 -3 -6 -6z"/>
<path d="M7320 2469 c0 -5 4 -8 9 -4 5 3 12 1 16 -5 3 -5 12 -10 18 -10 7 0 3
7 -7 15 -23 18 -36 19 -36 4z"/>
<path d="M5858 2463 c7 -3 16 -2 19 1 4 3 -2 6 -13 5 -11 0 -14 -3 -6 -6z"/>
<path d="M6833 2463 c9 -2 23 -2 30 0 6 3 -1 5 -18 5 -16 0 -22 -2 -12 -5z"/>
<path d="M6888 2463 c7 -3 16 -2 19 1 4 3 -2 6 -13 5 -11 0 -14 -3 -6 -6z"/>
<path d="M2196 2438 c-7 -26 -8 -108 -2 -108 2 0 11 -3 20 -6 14 -5 16 3 16
54 0 38 -5 64 -14 71 -11 9 -15 7 -20 -11z"/>
<path d="M3805 2413 c-14 -22 -21 -41 -16 -46 11 -11 61 20 61 38 0 7 3 20 6
29 12 32 -25 16 -51 -21z"/>
<path d="M1767 2433 c-2 -5 -3 -28 -3 -53 1 -41 3 -45 31 -51 17 -4 40 -11 53
-14 19 -7 22 -4 22 22 0 32 -19 58 -62 86 -31 19 -35 20 -41 10z"/>
<path d="M2352 2388 c3 -51 12 -65 34 -50 16 10 -6 102 -24 102 -9 0 -12 -14
-10 -52z"/>
<path d="M2430 2413 c0 -13 5 -23 10 -23 13 0 13 11 0 30 -8 12 -10 11 -10 -7z"/>
<path d="M2410 2356 c0 -7 9 -16 20 -19 15 -4 20 0 20 14 0 12 -7 19 -20 19
-11 0 -20 -6 -20 -14z"/>
<path d="M3170 2289 c19 -54 26 -62 74 -73 28 -7 29 -6 22 26 -11 57 -29 87
-51 87 -11 0 -30 2 -41 6 l-21 7 17 -53z"/>
<path d="M3360 2330 c0 -5 -7 -10 -15 -10 -8 0 -15 -8 -15 -17 0 -20 17 -50
23 -43 6 7 16 80 11 80 -2 0 -4 -4 -4 -10z"/>
<path d="M6952 2328 c7 -19 38 -22 38 -4 0 10 -9 16 -21 16 -12 0 -19 -5 -17
-12z"/>
<path d="M4663 2167 c-20 -70 -28 -116 -22 -122 6 -5 9 -3 9 8 0 25 24 97 32
97 7 0 22 103 17 119 -2 6 -18 -40 -36 -102z"/>
<path d="M6995 2270 c3 -5 8 -10 11 -10 2 0 4 5 4 10 0 6 -5 10 -11 10 -5 0
-7 -4 -4 -10z"/>
<path d="M3635 2257 c-59 -23 -167 -99 -156 -110 7 -7 15 -6 26 3 8 7 33 12
56 12 33 -1 48 6 80 35 22 20 42 33 46 30 8 -8 33 25 27 35 -7 11 -44 9 -79
-5z"/>
<path d="M4815 2257 c-10 -11 -45 -91 -45 -102 0 -25 51 48 54 77 1 3 4 10 9
14 4 4 7 11 7 16 0 12 -13 9 -25 -5z"/>
<path d="M3418 2223 c7 -3 16 -2 19 1 4 3 -2 6 -13 5 -11 0 -14 -3 -6 -6z"/>
<path d="M1760 2190 c0 -4 12 -13 28 -18 15 -5 34 -13 43 -17 12 -4 16 -1 15
16 -1 19 -7 23 -43 25 -24 1 -43 -2 -43 -6z"/>
<path d="M4706 2185 c-3 -9 -6 -22 -5 -28 0 -7 5 -1 10 12 5 13 8 26 5 28 -2
2 -6 -3 -10 -12z"/>
<path d="M2353 2145 c-8 -22 2 -28 25 -16 29 15 53 14 73 -5 17 -16 18 -15 7
7 -9 19 -20 25 -55 27 -32 2 -45 -2 -50 -13z"/>
<path d="M3030 2116 c0 -19 5 -38 10 -41 6 -4 10 8 10 29 0 19 -4 38 -10 41
-6 4 -10 -8 -10 -29z"/>
<path d="M3203 2049 c-7 -29 -12 -54 -10 -55 1 -1 14 -5 29 -9 24 -6 27 -4 32
27 13 79 12 83 -14 86 -23 3 -26 -2 -37 -49z"/>
<path d="M2590 2082 c0 -13 43 -26 62 -19 7 3 2 6 -12 6 -15 1 -31 6 -38 13
-9 9 -12 9 -12 0z"/>
<path d="M3460 2030 c0 -6 7 -10 15 -10 8 0 15 2 15 4 0 2 -7 6 -15 10 -8 3
-15 1 -15 -4z"/>
<path d="M3520 2030 c0 -5 5 -10 10 -10 6 0 10 5 10 10 0 6 -4 10 -10 10 -5 0
-10 -4 -10 -10z"/>
<path d="M4766 2032 c-4 -7 -4 -12 -1 -12 4 0 0 -7 -9 -15 -16 -17 -30 -20
-21 -6 3 5 1 12 -4 16 -10 6 -31 -55 -31 -90 0 -15 2 -17 9 -6 7 11 9 11 14 0
6 -17 60 96 55 113 -3 9 -6 9 -12 0z"/>
<path d="M7022 2031 c-10 -6 -10 -10 3 -21 13 -11 15 -9 15 9 0 24 0 24 -18
12z"/>
<path d="M4645 2008 c-40 -186 -76 -303 -89 -291 -4 4 -4 -1 0 -11 6 -16 4
-18 -14 -14 -15 4 -22 2 -22 -9 0 -10 6 -12 20 -8 15 5 18 3 14 -9 -3 -9 -10
-14 -14 -11 -12 8 -40 -24 -40 -44 0 -14 6 -17 25 -13 l25 4 -22 -53 c-12 -30
-29 -61 -39 -69 -25 -22 -37 -51 -54 -127 -25 -116 -24 -113 -61 -113 -19 0
-34 -5 -34 -11 0 -21 -24 -2 -31 24 -6 21 -2 31 16 45 16 13 22 26 19 40 -4
14 0 22 14 26 18 6 20 13 16 58 -2 28 -6 53 -8 55 -2 3 -21 5 -42 6 -34 2 -40
-2 -59 -36 -12 -20 -25 -34 -28 -30 -11 11 -8 -2 9 -36 9 -18 18 -50 21 -71 5
-34 3 -39 -18 -42 -22 -3 -24 -8 -27 -67 l-3 -63 63 6 c35 4 96 12 136 18 64
10 75 14 83 36 5 13 18 36 29 50 11 14 18 33 15 42 -3 10 1 23 10 30 8 7 12
17 9 22 -7 12 25 48 43 48 7 0 13 7 13 15 0 8 5 15 11 15 5 0 7 5 3 11 -3 6 6
23 21 39 15 16 22 30 17 34 -11 7 -9 117 3 135 9 16 27 2 21 -16 -5 -13 -1
-14 23 -10 22 5 31 2 37 -11 5 -11 10 9 14 58 8 87 1 170 -12 170 -14 0 -77
-72 -78 -87 0 -7 -4 -13 -9 -13 -22 0 -28 28 -21 95 16 142 19 205 10 205 -5
0 -12 -10 -15 -22z m99 -347 c3 -5 -1 -14 -9 -21 -13 -10 -15 -9 -15 9 0 21
14 28 24 12z"/>
<path d="M2360 2010 c0 -5 5 -10 11 -10 5 0 7 5 4 10 -3 6 -8 10 -11 10 -2 0
-4 -4 -4 -10z"/>
<path d="M5710 2009 c-58 -4 -126 -7 -152 -8 -33 -1 -48 -5 -48 -14 0 -23 43
-36 90 -27 25 5 55 4 72 -2 16 -6 53 -7 81 -4 80 11 167 18 219 18 38 0 49 4
53 19 7 23 25 25 25 4 0 -17 16 -20 25 -5 4 6 16 8 27 4 11 -3 18 -2 15 2 -3
5 6 10 19 10 13 1 21 -2 18 -7 -3 -5 2 -9 10 -9 9 0 16 4 16 10 0 5 33 11 73
13 39 2 -43 3 -183 3 -140 -1 -302 -4 -360 -7z"/>
<path d="M6336 2005 c3 -7 12 -11 21 -8 8 3 18 1 22 -4 10 -16 85 -31 132 -27
24 2 104 4 177 5 75 0 132 4 132 10 0 5 11 9 24 9 14 0 27 3 29 8 3 4 -97 7
-222 7 -124 1 -247 4 -273 8 -38 5 -46 4 -42 -8z"/>
<path d="M6208 1988 c7 -7 23 -7 49 0 l38 10 -48 0 c-32 -1 -45 -4 -39 -10z"/>
<path d="M6300 1990 c0 -5 5 -10 11 -10 5 0 7 5 4 10 -3 6 -8 10 -11 10 -2 0
-4 -4 -4 -10z"/>
<path d="M7185 1990 l-50 -6 55 -5 c30 -3 62 -2 70 2 9 4 22 4 30 0 8 -5 30
-11 48 -14 27 -6 32 -4 32 14 0 18 -6 20 -67 17 -38 -2 -90 -5 -118 -8z"/>
<path d="M7098 1983 c7 -3 16 -2 19 1 4 3 -2 6 -13 5 -11 0 -14 -3 -6 -6z"/>
<path d="M1405 1959 c-4 -6 -5 -12 -2 -15 7 -7 37 7 37 17 0 13 -27 11 -35 -2z"/>
<path d="M1560 1924 c0 -9 -8 -14 -17 -13 -10 1 -25 1 -33 0 -12 -1 -12 -4 3
-12 9 -5 21 -7 27 -4 5 3 12 -10 16 -29 9 -50 21 -56 77 -43 44 10 47 12 47
43 0 28 -5 35 -43 53 -52 25 -77 27 -77 5z"/>
<path d="M1345 1888 c-9 -25 -15 -56 -13 -69 3 -21 8 -24 44 -23 68 1 74 7 74
69 0 58 -3 61 -44 45 -20 -7 -27 -6 -34 7 -7 12 -13 6 -27 -29z"/>
<path d="M2383 1923 c9 -2 23 -2 30 0 6 3 -1 5 -18 5 -16 0 -22 -2 -12 -5z"/>
<path d="M2653 1923 c9 -2 23 -2 30 0 6 3 -1 5 -18 5 -16 0 -22 -2 -12 -5z"/>
<path d="M3042 1873 c2 -45 7 -59 20 -61 24 -5 43 35 30 62 -6 11 -13 29 -16
39 -3 9 -12 17 -21 17 -13 0 -15 -10 -13 -57z"/>
<path d="M2365 1900 c-2 -3 -5 -23 -6 -45 -3 -33 -1 -40 14 -39 9 0 35 1 56 2
37 2 40 4 37 30 -2 15 -4 32 -5 38 -1 12 -90 24 -96 14z"/>
<path d="M2590 1862 l0 -43 47 3 c46 3 48 4 54 40 l6 36 -54 4 -53 3 0 -43z
m60 8 c0 -12 -8 -12 -35 0 -18 8 -17 9 8 9 15 1 27 -3 27 -9z"/>
<path d="M2810 1899 c0 -6 7 -8 16 -5 9 4 27 0 39 -8 19 -13 24 -13 28 -2 3 8
3 17 0 20 -11 11 -83 6 -83 -5z"/>
<path d="M4757 1884 c-4 -4 -7 -14 -7 -23 0 -11 3 -12 11 -4 6 6 10 16 7 23
-2 6 -7 8 -11 4z"/>
<path d="M2816 1872 c-3 -5 -3 -18 0 -29 4 -15 15 -20 44 -21 45 -2 60 12 30
28 -11 6 -20 8 -20 5 0 -3 -11 2 -24 10 -13 9 -27 12 -30 7z"/>
<path d="M4441 1864 c0 -11 3 -14 6 -6 3 7 2 16 -1 19 -3 4 -6 -2 -5 -13z"/>
<path d="M4560 1854 c0 -8 6 -11 15 -8 8 4 15 9 15 13 0 4 -7 8 -15 8 -8 0
-15 -6 -15 -13z"/>
<path d="M3167 1853 c-4 -3 -7 -29 -7 -57 0 -45 3 -52 26 -63 23 -10 26 -9 35
13 5 14 9 45 9 70 0 42 -1 44 -28 44 -16 0 -32 -3 -35 -7z"/>
<path d="M1799 1832 c14 -26 51 -53 63 -46 16 10 9 54 -9 54 -10 0 -29 3 -42
7 -21 5 -22 4 -12 -15z"/>
<path d="M3510 1790 c0 -5 5 -10 11 -10 5 0 7 5 4 10 -3 6 -8 10 -11 10 -2 0
-4 -4 -4 -10z"/>
<path d="M3672 1752 c-18 -6 -15 -49 4 -56 9 -3 31 -6 50 -6 26 0 34 4 34 18
0 18 -66 52 -88 44z"/>
<path d="M3940 1746 c28 -17 60 -22 45 -7 -6 5 -23 12 -40 16 l-30 6 25 -15z"/>
<path d="M1564 1730 c-28 -11 -35 -22 -24 -40 4 -7 4 -24 0 -36 -10 -24 0 -36
30 -41 8 -1 27 -4 42 -7 35 -7 48 11 50 68 2 32 -2 50 -12 56 -18 12 -58 12
-86 0z"/>
<path d="M4118 1723 c6 -2 18 -2 25 0 6 3 1 5 -13 5 -14 0 -19 -2 -12 -5z"/>
<path d="M1326 1703 c-10 -3 -33 -14 -50 -24 -25 -15 -27 -19 -11 -19 19 0 52
-36 47 -52 -3 -12 16 -10 23 2 3 6 19 10 35 10 26 0 60 22 60 38 -1 38 -14 52
-49 51 -20 -1 -45 -4 -55 -6z"/>
<path d="M4330 1703 c0 -13 54 -35 58 -23 2 6 8 8 13 4 5 -3 9 -1 9 4 0 10
-33 22 -62 22 -10 0 -18 -3 -18 -7z"/>
<path d="M2594 1682 c-9 -6 -12 -107 -3 -116 6 -6 38 -8 77 -7 l33 1 -2 60 -2
60 -33 0 c-18 0 -38 2 -46 5 -7 3 -18 1 -24 -3z"/>
<path d="M2826 1683 c-9 -9 -8 -113 2 -114 4 0 27 -3 51 -5 l44 -5 -6 38 c-4
21 -7 47 -7 57 0 11 -3 17 -6 14 -3 -4 -20 0 -39 7 -18 8 -35 11 -39 8z"/>
<path d="M4110 1673 c0 -17 8 -22 46 -28 25 -3 48 -4 51 -1 12 11 -11 26 -41
26 -17 0 -37 5 -44 12 -9 9 -12 7 -12 -9z"/>
<path d="M3040 1677 c-8 -34 -5 -114 4 -119 19 -13 84 -9 89 5 5 13 -7 95 -14
101 -5 4 -79 16 -79 13z"/>
<path d="M4374 1661 c-68 -17 -74 -41 -9 -41 41 0 45 2 45 25 0 14 -1 25 -2
24 -2 -1 -17 -4 -34 -8z"/>
<path d="M3157 1617 c-2 -7 0 -43 4 -82 4 -38 8 -104 9 -145 0 -102 9 -150 27
-150 11 0 13 7 8 31 -5 22 -4 29 4 25 6 -4 11 0 11 8 0 9 -7 16 -15 16 -12 0
-14 14 -10 80 2 45 7 86 11 92 6 10 10 29 13 71 0 10 6 15 11 12 6 -3 10 -1
10 4 0 6 0 14 0 19 0 4 -3 7 -7 8 -5 0 -16 4 -25 7 -38 15 -47 15 -51 4z"/>
<path d="M1529 1574 c-16 -20 -12 -21 50 -25 59 -4 84 15 34 25 -63 14 -72 14
-84 0z"/>
<path d="M5073 1573 c-14 -5 -18 -33 -5 -33 10 0 32 22 32 32 0 9 -8 9 -27 1z"/>
<path d="M3272 1536 c5 -34 13 -40 16 -11 1 13 -3 27 -9 30 -6 4 -9 -3 -7 -19z"/>
<path d="M4149 1535 c-3 -2 -16 -7 -30 -9 -13 -2 -25 -5 -27 -5 -4 -1 31 -55
43 -64 6 -5 1 -6 -10 -2 -37 12 -40 10 -43 -22 -3 -32 -2 -33 37 -33 23 0 41
5 41 10 0 6 -5 10 -11 10 -8 0 -8 4 0 14 33 39 32 134 0 101z"/>
<path d="M5990 1530 c0 -6 7 -10 15 -10 8 0 15 2 15 4 0 2 -7 6 -15 10 -8 3
-15 1 -15 -4z"/>
<path d="M2615 1520 c-3 -5 -1 -10 4 -10 6 0 11 5 11 10 0 6 -2 10 -4 10 -3 0
-8 -4 -11 -10z"/>
<path d="M6053 1523 c9 -2 23 -2 30 0 6 3 -1 5 -18 5 -16 0 -22 -2 -12 -5z"/>
<path d="M6165 1516 c13 -9 24 -11 30 -5 12 12 28 12 20 -1 -7 -11 6 -13 29
-4 31 12 16 20 -41 22 -52 2 -56 1 -38 -12z"/>
<path d="M6270 1520 c0 -13 11 -13 30 0 12 8 11 10 -7 10 -13 0 -23 -4 -23
-10z"/>
<path d="M6320 1520 c0 -4 18 -10 40 -12 24 -2 40 1 40 7 0 6 -18 11 -40 11
-22 1 -40 -2 -40 -6z"/>
<path d="M6560 1519 c-65 -5 -68 -8 -10 -14 8 -1 33 -5 55 -10 22 -4 48 -7 58
-6 10 1 24 -2 30 -8 11 -9 44 -9 257 1 14 1 48 1 75 0 44 -1 196 3 233 7 7 0
11 5 8 10 -4 5 0 11 6 14 7 3 -130 5 -306 6 -175 1 -321 2 -325 4 -3 1 -40 -1
-81 -4z"/>
<path d="M3680 1509 c-13 -6 -26 -11 -28 -13 -6 -6 21 -55 33 -60 20 -7 50 0
49 12 -1 7 -2 26 -2 42 -2 32 -11 35 -52 19z"/>
<path d="M3880 1490 c0 -17 5 -30 13 -30 7 -1 5 -6 -5 -14 -24 -17 -13 -26 34
-26 38 0 38 0 38 40 0 29 -4 40 -15 40 -23 0 -29 1 -47 11 -15 8 -18 5 -18
-21z"/>
<path d="M6418 1513 c7 -3 16 -2 19 1 4 3 -2 6 -13 5 -11 0 -14 -3 -6 -6z"/>
<path d="M6465 1510 c3 -5 8 -10 11 -10 2 0 4 5 4 10 0 6 -5 10 -11 10 -5 0
-7 -4 -4 -10z"/>
<path d="M7290 1504 c0 -7 5 -14 10 -14 6 0 10 5 10 11 0 8 4 8 13 2 16 -14
47 -12 47 2 0 6 -18 11 -40 12 -29 2 -40 -2 -40 -13z"/>
<path d="M4215 1479 c-8 -12 3 -49 15 -49 14 0 18 49 4 54 -7 3 -16 1 -19 -5z"/>
<path d="M2595 1432 c-3 -3 -5 -28 -5 -57 0 -54 12 -75 42 -75 10 0 18 -7 18
-15 0 -9 -9 -15 -22 -15 -16 0 -19 -3 -11 -11 7 -7 24 -8 42 -4 26 6 30 9 20
21 -6 8 -10 15 -8 17 2 1 13 7 24 13 16 9 19 20 16 65 -1 30 -3 55 -4 55 -7 5
-108 10 -112 6z"/>
<path d="M2848 1432 c-17 -3 -34 -70 -26 -108 4 -20 39 -32 80 -26 27 4 28 6
28 67 l0 63 -32 4 c-18 2 -41 2 -50 0z"/>
<path d="M3043 1360 c3 -34 7 -63 9 -65 1 -2 21 -5 43 -7 l40 -3 3 58 c3 62 4
61 -62 72 l-39 6 6 -61z"/>
<path d="M5244 1414 c-7 -3 -10 -14 -7 -24 4 -16 14 -20 49 -20 23 0 46 5 50
12 15 24 -53 48 -92 32z"/>
<path d="M2496 1391 c-9 -13 4 -41 18 -41 20 0 26 11 15 31 -10 20 -24 24 -33
10z"/>
<path d="M4955 1370 c-3 -5 -1 -10 4 -10 6 0 11 5 11 10 0 6 -2 10 -4 10 -3 0
-8 -4 -11 -10z"/>
<path d="M5450 1346 c0 -15 21 -26 48 -26 13 0 11 5 -8 20 -30 23 -40 25 -40
6z"/>
<path d="M5230 1320 c-30 -11 -81 -27 -112 -37 -32 -9 -58 -20 -58 -24 0 -4
16 -13 35 -19 31 -10 37 -9 53 8 23 28 95 50 161 50 60 1 63 2 52 20 -13 21
-72 22 -131 2z"/>
<path d="M1890 1316 c0 -2 9 -6 20 -9 11 -3 18 -1 14 4 -5 9 -34 13 -34 5z"/>
<path d="M3240 1294 c0 -22 2 -25 15 -14 8 7 15 19 15 26 0 8 -7 14 -15 14
-10 0 -15 -10 -15 -26z"/>
<path d="M3469 1318 c0 -2 -2 -15 -3 -29 -1 -18 3 -25 11 -22 15 6 18 53 3 53
-5 0 -10 -1 -11 -2z"/>
<path d="M3620 1290 c0 -6 13 -10 30 -10 21 0 28 -4 24 -14 -3 -7 2 -16 11
-20 17 -6 30 17 23 39 -4 12 -88 17 -88 5z"/>
<path d="M3844 1277 c-13 -15 -6 -89 10 -99 20 -13 76 -9 76 6 0 7 3 34 6 60
l7 46 -44 0 c-24 -1 -49 -6 -55 -13z"/>
<path d="M4065 1258 c-13 -40 -21 -85 -18 -95 3 -7 14 -13 26 -14 12 0 16 -3
9 -6 -19 -7 -4 -23 23 -23 27 0 51 33 47 65 -5 44 -13 66 -21 60 -5 -2 -11 2
-15 10 -7 18 -45 20 -51 3z"/>
<path d="M7019 1265 c-8 -12 -3 -146 6 -182 5 -21 8 -24 15 -12 5 7 7 23 3 34
-3 11 -9 53 -12 95 -3 41 -9 71 -12 65z"/>
<path d="M3230 1250 c0 -5 7 -10 15 -10 8 0 15 5 15 10 0 6 -7 10 -15 10 -8 0
-15 -4 -15 -10z"/>
<path d="M3390 1233 c0 -7 9 -13 20 -13 11 0 20 6 20 14 0 9 -9 14 -20 13 -11
-1 -20 -7 -20 -14z"/>
<path d="M3450 1226 c0 -9 7 -16 16 -16 17 0 14 22 -4 28 -7 2 -12 -3 -12 -12z"/>
<path d="M1725 1215 c-22 -8 -48 -24 -57 -35 -15 -19 -15 -24 -1 -65 8 -25 18
-45 23 -45 4 0 30 15 56 33 45 30 49 36 46 67 -4 52 -19 61 -67 45z"/>
<path d="M2610 1220 c0 -5 4 -10 9 -10 6 0 13 5 16 10 3 6 -1 10 -9 10 -9 0
-16 -4 -16 -10z"/>
<path d="M4606 1205 c4 -8 10 -15 15 -15 4 0 6 7 3 15 -4 8 -10 15 -15 15 -4
0 -6 -7 -3 -15z"/>
<path d="M4880 1190 c-8 -5 -10 -10 -5 -10 6 0 17 5 25 10 8 5 11 10 5 10 -5
0 -17 -5 -25 -10z"/>
<path d="M5240 1181 c-19 -13 -16 -15 65 -36 78 -20 146 -51 158 -71 9 -16 37
-19 37 -4 0 6 -12 16 -27 23 -16 6 -30 14 -33 18 -10 12 -125 67 -155 73 -16
3 -37 2 -45 -3z"/>
<path d="M2680 1169 c0 -5 5 -7 10 -4 6 3 10 8 10 11 0 2 -4 4 -10 4 -5 0 -10
-5 -10 -11z"/>
<path d="M4904 1151 c7 -11 56 -21 56 -11 0 9 -25 20 -46 20 -9 0 -13 -4 -10
-9z"/>
<path d="M3148 1113 c6 -2 18 -2 25 0 6 3 1 5 -13 5 -14 0 -19 -2 -12 -5z"/>
<path d="M7093 1112 c-24 -4 -32 -22 -10 -22 15 0 43 18 37 22 -3 2 -15 2 -27
0z"/>
<path d="M5289 1093 c5 -10 26 -34 46 -53 32 -30 36 -32 25 -10 -15 30 -60 80
-72 80 -5 0 -4 -8 1 -17z"/>
<path d="M5622 1054 c14 -15 32 -24 39 -22 16 5 -28 48 -50 48 -11 0 -8 -7 11
-26z"/>
<path d="M5715 1060 c-6 -9 14 -71 26 -84 6 -7 9 -7 9 0 0 5 48 9 113 9 61 0
116 2 121 4 16 7 57 7 62 0 2 -4 21 -2 41 3 40 11 44 11 146 8 76 -1 201 7
281 20 37 6 65 6 77 0 22 -13 69 -13 69 -1 0 13 74 4 78 -9 5 -15 153 -1 170
17 8 8 13 16 11 18 -2 2 -204 6 -449 10 -245 4 -514 8 -598 10 -84 1 -154 -1
-157 -5z"/>
<path d="M7040 1039 c0 -3 -10 -11 -22 -16 l-23 -11 25 -1 c14 0 84 -4 155 -7
72 -3 144 -6 160 -7 24 -2 31 2 33 21 3 21 1 22 -85 23 -48 0 -123 1 -165 2
-43 1 -78 -1 -78 -4z"/>
<path d="M5010 997 c0 -7 5 -18 11 -24 6 -6 8 -17 4 -24 -6 -8 -12 -4 -22 15
-12 22 -33 36 -33 21 0 -10 54 -115 60 -115 4 0 5 69 1 123 -1 20 -21 24 -21
4z"/>
<path d="M6021 924 c0 -11 3 -14 6 -6 3 7 2 16 -1 19 -3 4 -6 -2 -5 -13z"/>
<path d="M5946 914 c-4 -9 -4 -19 -1 -22 2 -3 7 3 11 12 4 9 4 19 1 22 -2 3
-7 -3 -11 -12z"/>
<path d="M5386 887 c3 -10 9 -15 12 -12 3 3 0 11 -7 18 -10 9 -11 8 -5 -6z"/>
<path d="M5950 873 c0 -4 5 -15 10 -23 8 -13 10 -13 10 2 0 9 -4 20 -10 23 -5
3 -10 3 -10 -2z"/>
<path d="M5985 870 c-4 -6 -4 -10 -1 -10 2 0 11 -3 20 -6 9 -3 16 -2 16 4 0
14 -28 23 -35 12z"/>
<path d="M6385 860 c-3 -5 -1 -10 4 -10 6 0 11 5 11 10 0 6 -2 10 -4 10 -3 0
-8 -4 -11 -10z"/>
<path d="M3640 840 c0 -5 5 -10 10 -10 6 0 10 5 10 10 0 6 -4 10 -10 10 -5 0
-10 -4 -10 -10z"/>
<path d="M6410 815 c0 -8 4 -15 10 -15 5 0 7 7 4 15 -4 8 -8 15 -10 15 -2 0
-4 -7 -4 -15z"/>
<path d="M4282 754 c-21 -14 -21 -17 -7 -45 9 -17 24 -29 35 -29 22 0 39 22
22 28 -7 2 -12 14 -12 27 0 32 -12 37 -38 19z"/>
<path d="M5167 763 c-3 -4 -7 -30 -8 -56 l-4 -49 40 -14 c54 -19 60 -18 73 11
20 43 15 84 -10 94 -41 15 -86 22 -91 14z"/>
<path d="M5588 749 c-21 -23 -23 -39 -5 -39 11 0 37 39 37 55 0 10 -16 2 -32
-16z"/>
<path d="M5693 755 c-10 -11 -10 -20 0 -44 12 -28 14 -29 29 -15 13 13 13 21
5 45 -13 33 -17 34 -34 14z"/>
<path d="M5387 638 c-3 -24 -2 -47 4 -52 5 -6 9 -2 9 11 0 11 3 35 6 52 4 18
2 31 -3 31 -6 0 -13 -19 -16 -42z"/>
<path d="M5470 666 c0 -8 5 -18 10 -21 6 -3 10 3 10 14 0 12 -4 21 -10 21 -5
0 -10 -6 -10 -14z"/>
<path d="M5480 613 c0 -12 5 -25 10 -28 13 -8 13 15 0 35 -8 12 -10 11 -10 -7z"/>
<path d="M5658 586 c-17 -12 -17 -16 -2 -44 23 -46 38 -52 28 -11 -4 19 -7 42
-6 52 1 20 2 20 -20 3z"/>
<path d="M5823 583 c-27 -4 -33 -9 -33 -29 0 -13 -6 -24 -12 -25 -7 0 -2 -5
11 -10 16 -6 21 -14 16 -27 -5 -14 -4 -15 6 -4 7 6 31 12 52 12 34 0 38 2 27
15 -10 12 -10 19 -2 27 9 9 12 9 12 0 0 -7 4 -12 9 -12 5 0 8 11 7 25 0 14 -5
25 -11 25 -5 0 -19 2 -30 4 -11 2 -35 1 -52 -1z"/>
<path d="M6920 429 c0 -5 5 -7 10 -4 6 3 10 8 10 11 0 2 -4 4 -10 4 -5 0 -10
-5 -10 -11z"/>
<path d="M6475 270 c3 -5 8 -10 11 -10 2 0 4 5 4 10 0 6 -5 10 -11 10 -5 0 -7
-4 -4 -10z"/>
<path d="M6500 195 c0 -8 5 -15 10 -15 6 0 10 7 10 15 0 8 -4 15 -10 15 -5 0
-10 -7 -10 -15z"/>
<path d="M6478 168 c-7 -16 7 -45 14 -32 3 5 2 18 -2 28 -5 16 -8 17 -12 4z"/>
<path d="M6517 164 c-8 -8 1 -24 14 -24 5 0 9 7 9 15 0 15 -12 20 -23 9z"/>
<path d="M6515 120 c3 -5 10 -10 16 -10 5 0 9 5 9 10 0 6 -7 10 -16 10 -8 0
-12 -4 -9 -10z"/>
</g>
</svg>
